<?xml version="1.0" encoding="utf-8"?>
<!-- Generator: Adobe Illustrator 15.0.2, SVG Export Plug-In . SVG Version: 6.00 Build 0)  -->
<!DOCTYPE svg PUBLIC "-//W3C//DTD SVG 1.1//EN" "http://www.w3.org/Graphics/SVG/1.1/DTD/svg11.dtd">
<svg version="1.1" xmlns="http://www.w3.org/2000/svg" xmlns:xlink="http://www.w3.org/1999/xlink" x="0px" y="0px" width="600px"
	 height="400px" viewBox="0 0 600 400" enable-background="new 0 0 600 400" xml:space="preserve">
<g id="Layer_2">
	<radialGradient id="SVGID_1_" cx="301.2227" cy="202.3887" r="263.6119" gradientUnits="userSpaceOnUse">
		<stop  offset="0" style="stop-color:#FFFFFF"/>
		<stop  offset="1" style="stop-color:#F1F2F2"/>
	</radialGradient>
	<rect x="-8.249" y="-5.482" fill="url(#SVGID_1_)" width="618.942" height="415.742"/>
	<g>
		<g>
			<path fill="#2A357A" d="M53.359,375.054c0.043,0.107,0.129,0.322,0.321,0.322s0.278-0.215,0.321-0.322l4.479-12.105h3.064
				l-5.443,13.541c-0.277,0.707-0.899,1.628-2.421,1.628c-0.686,0-1.821-0.149-2.421-1.628l-5.442-13.541h3.063L53.359,375.054z"/>
			<path fill="#2A357A" d="M64.887,377.946c-1.158,0-2.529-0.106-3.473-1.436c-0.75-1.071-0.814-2.636-0.814-4.135
				c0-2.121,0.106-3.686,1.35-4.757c1.244-1.072,3.171-1.072,4.242-1.072c1.33,0,2.701,0.065,3.751,0.729
				c1.328,0.836,1.607,2.251,1.607,3.686c0,0.578-0.065,1.243-0.536,1.715c-0.343,0.343-0.771,0.429-1.222,0.429h-6.599
				c0,0.492,0.063,1.221,0.149,1.564c0.321,1.221,1.37,1.35,2.292,1.35h5.549v1.928H64.887z M68.4,371.176
				c0.492,0,0.557-0.364,0.557-0.664c0-0.707-0.364-1.243-0.729-1.521c-0.622-0.472-1.436-0.514-2.143-0.514
				c-0.665,0-1.693-0.022-2.379,0.75c-0.514,0.578-0.493,1.199-0.514,1.949H68.4z"/>
			<path fill="#2A357A" d="M77.075,377.946c-0.856,0-2.356-0.171-3.385-1.392c-0.942-1.115-1.028-2.529-1.028-4.137
				c0-1.35,0.021-3.299,1.285-4.606c0.472-0.471,1.436-1.221,3.471-1.221h5.918v1.928h-5.103c-1.693,0-2.508,0.836-2.785,1.8
				c-0.173,0.601-0.194,1.8-0.194,2.144c0,0.663,0.064,1.757,0.365,2.356c0.557,1.093,1.799,1.2,2.85,1.2h4.071v1.928H77.075z"/>
			<path fill="#2A357A" d="M88.838,377.946c-1.521,0-2.336-0.257-3.044-0.835c-0.728-0.601-1.134-1.435-1.134-2.871v-5.722h-1.565
				v-1.928h1.565v-3.643h2.506v3.643h3.172v1.928h-3.172v4.564c0,0.771-0.064,1.843,0.665,2.443c0.557,0.471,1.5,0.492,1.948,0.492
				h0.622v1.928H88.838z"/>
			<path fill="#2A357A" d="M101.585,367.662c1.308,1.221,1.457,3.364,1.457,4.563c0,2.399-0.621,3.836-1.457,4.629
				c-1.221,1.135-3.277,1.221-4.585,1.221c-1.349,0-3.343-0.086-4.586-1.221c-1.349-1.244-1.456-3.386-1.456-4.543
				c0-1.285,0.149-3.429,1.456-4.649c1.243-1.157,3.237-1.2,4.586-1.2C98.351,366.462,100.343,366.505,101.585,367.662z
				 M94.278,375.204c0.729,0.835,1.821,0.942,2.722,0.942c0.941,0,1.95-0.107,2.699-0.942c0.751-0.836,0.751-1.929,0.751-2.913
				c0-0.837,0.063-2.122-0.729-3.001c-0.728-0.813-1.82-0.899-2.721-0.899c-0.814,0-2.035,0.086-2.743,0.899
				c-0.708,0.814-0.708,2.271-0.708,3.001C93.549,373.232,93.572,374.39,94.278,375.204z"/>
			<path fill="#2A357A" d="M104.456,370.876c0-1.243,0.214-2.465,1.178-3.301c1.05-0.921,2.528-0.984,3.405-0.984h1.693v1.928
				h-1.049c-0.664,0-1.543,0.086-2.143,0.793c-0.472,0.578-0.578,1.372-0.578,2.228v6.407h-2.507V370.876z"/>
		</g>
		<g>
			<path fill="#D02975" d="M112.019,377.946v-12.749c0-0.558,0-1.156,0.513-1.671c0.493-0.493,1.178-0.578,1.693-0.578h7.135
				c0.793,0,2.058,0,2.979,0.899c1.028,0.986,1.135,2.679,1.135,3.942c0,1.222-0.128,3.15-1.306,4.114
				c-0.559,0.449-1.416,0.729-2.293,0.729h-7.029v5.313H112.019z M120.226,370.383c0.619,0,1.349,0,1.842-0.557
				c0.45-0.515,0.492-1.479,0.492-2.057c0-0.665-0.063-1.564-0.535-2.058c-0.493-0.493-1.286-0.515-1.758-0.515h-4.563
				c-0.193,0-0.45-0.021-0.665,0.192c-0.192,0.193-0.192,0.451-0.192,0.707v4.286H120.226z"/>
			<path fill="#D02975" d="M127.186,364.94v-1.992h2.508v1.992H127.186z M127.186,366.591h2.508v11.355h-2.508V366.591z"/>
			<path fill="#D02975" d="M131.405,362.948h2.507v14.998h-2.507V362.948z"/>
			<path fill="#D02975" d="M139.61,377.946c-1.155,0-2.526-0.106-3.47-1.436c-0.749-1.071-0.814-2.636-0.814-4.135
				c0-2.121,0.108-3.686,1.351-4.757c1.243-1.072,3.17-1.072,4.241-1.072c1.329,0,2.7,0.065,3.75,0.729
				c1.329,0.836,1.606,2.251,1.606,3.686c0,0.578-0.063,1.243-0.535,1.715c-0.342,0.343-0.771,0.429-1.221,0.429h-6.599
				c0,0.492,0.063,1.221,0.149,1.564c0.32,1.221,1.37,1.35,2.293,1.35h5.55v1.928H139.61z M143.125,371.176
				c0.493,0,0.558-0.364,0.558-0.664c0-0.707-0.363-1.243-0.729-1.521c-0.619-0.472-1.435-0.514-2.141-0.514
				c-0.665,0-1.693-0.022-2.38,0.75c-0.513,0.578-0.491,1.199-0.513,1.949H143.125z"/>
		</g>
		
			<linearGradient id="SVGID_2_" gradientUnits="userSpaceOnUse" x1="28.5439" y1="388.2412" x2="37.1264" y2="358.3107" gradientTransform="matrix(1 1.000000e-004 -1.000000e-004 1 -0.0213 0.0191)">
			<stop  offset="0" style="stop-color:#851C54"/>
			<stop  offset="0.0375" style="stop-color:#891C56"/>
			<stop  offset="0.6953" style="stop-color:#CA296F"/>
			<stop  offset="1" style="stop-color:#EC307C"/>
		</linearGradient>
		<polygon fill="url(#SVGID_2_)" points="34.137,359.545 24.261,387.052 31.418,387.052 41.293,359.545 		"/>
		
			<linearGradient id="SVGID_3_" gradientUnits="userSpaceOnUse" x1="11.7236" y1="355.2871" x2="28.3849" y2="383.0161" gradientTransform="matrix(1 1.000000e-004 -1.000000e-004 1 -0.0213 0.0191)">
			<stop  offset="0" style="stop-color:#29377C"/>
			<stop  offset="0.4436" style="stop-color:#2C68A2"/>
			<stop  offset="0.8247" style="stop-color:#2D94CA"/>
			<stop  offset="1" style="stop-color:#2AA7DF"/>
		</linearGradient>
		<path fill="url(#SVGID_3_)" d="M17.542,359.544c2.196,0,4.578,1.676,5.32,3.742l8.526,23.766H24.23l-9.871-27.508H17.542z"/>
		<g>
			<path fill="#2A2866" d="M56.05,382.764h0.509l1.586,3.981l1.571-3.981h0.456l-1.834,4.49h-0.455l-1.578-4.034l-1.58,4.034H54.27
				l-1.834-4.49h0.457l1.621,3.981L56.05,382.764z"/>
			<path fill="#2A2866" d="M64.117,382.764h0.509l1.587,3.981l1.57-3.981h0.457l-1.834,4.49h-0.455l-1.579-4.034l-1.579,4.034
				h-0.455l-1.834-4.49h0.456l1.622,3.981L64.117,382.764z"/>
			<path fill="#2A2866" d="M72.186,382.764h0.509l1.587,3.981l1.57-3.981h0.455l-1.832,4.49h-0.457l-1.578-4.034l-1.578,4.034
				h-0.456l-1.833-4.49h0.456l1.622,3.981L72.186,382.764z"/>
			<path fill="#2A2866" d="M76.957,386.377h0.455v0.877h-0.455V386.377z"/>
			<path fill="#2A2866" d="M78.613,382.764h0.457l1.963,4.087l1.966-4.087h0.456l-2.22,4.49h-0.403L78.613,382.764z"/>
			<path fill="#2A2866" d="M84.541,385.097c0.007,0.28,0.057,0.539,0.154,0.776c0.096,0.236,0.234,0.442,0.416,0.618
				c0.18,0.176,0.404,0.311,0.666,0.408c0.264,0.096,0.564,0.144,0.902,0.144c0.352,0,0.642-0.048,0.87-0.144
				c0.228-0.098,0.411-0.213,0.552-0.347c0.14-0.135,0.246-0.275,0.32-0.422c0.073-0.146,0.13-0.269,0.171-0.368h0.403
				c-0.188,0.567-0.478,0.981-0.868,1.241c-0.393,0.26-0.89,0.391-1.491,0.391c-0.385,0-0.73-0.056-1.039-0.167
				c-0.307-0.11-0.568-0.271-0.785-0.482c-0.216-0.211-0.382-0.465-0.498-0.763c-0.117-0.298-0.178-0.634-0.178-1.009
				c0-0.233,0.042-0.487,0.125-0.763c0.081-0.274,0.218-0.529,0.41-0.764c0.195-0.232,0.451-0.43,0.773-0.587
				c0.32-0.157,0.722-0.236,1.201-0.236c0.391,0,0.739,0.061,1.042,0.185c0.305,0.122,0.563,0.293,0.772,0.512
				c0.211,0.22,0.371,0.481,0.483,0.785c0.109,0.304,0.169,0.635,0.175,0.991H84.541z M88.663,384.746
				c-0.041-0.305-0.122-0.569-0.245-0.794c-0.124-0.225-0.277-0.409-0.461-0.553c-0.184-0.143-0.393-0.25-0.623-0.32
				c-0.23-0.069-0.476-0.104-0.731-0.104c-0.585,0-1.054,0.159-1.403,0.478c-0.351,0.318-0.57,0.75-0.658,1.294H88.663z"/>
			<path fill="#2A2866" d="M94.372,384.176c-0.013-0.141-0.068-0.281-0.167-0.426c-0.1-0.143-0.232-0.271-0.398-0.386
				c-0.167-0.114-0.364-0.207-0.593-0.28s-0.477-0.109-0.745-0.109c-0.356,0-0.668,0.059-0.935,0.175
				c-0.265,0.117-0.488,0.272-0.667,0.465c-0.178,0.193-0.31,0.414-0.397,0.663c-0.089,0.248-0.132,0.507-0.132,0.775
				c0,0.182,0.034,0.388,0.104,0.618c0.07,0.231,0.188,0.447,0.352,0.649c0.164,0.201,0.383,0.373,0.657,0.513
				c0.275,0.14,0.614,0.21,1.018,0.21c0.229,0,0.448-0.026,0.662-0.083c0.213-0.056,0.407-0.139,0.584-0.25
				c0.175-0.11,0.324-0.251,0.45-0.421c0.126-0.169,0.216-0.37,0.269-0.604h0.403c-0.06,0.292-0.162,0.547-0.312,0.763
				s-0.33,0.395-0.54,0.535c-0.209,0.14-0.445,0.243-0.706,0.312c-0.26,0.066-0.53,0.101-0.811,0.101
				c-0.367,0-0.708-0.057-1.018-0.171s-0.576-0.274-0.802-0.479c-0.225-0.204-0.401-0.45-0.525-0.736
				c-0.126-0.286-0.189-0.605-0.189-0.956c0-0.392,0.066-0.74,0.202-1.043c0.133-0.305,0.316-0.559,0.547-0.764
				s0.501-0.359,0.807-0.465c0.309-0.105,0.635-0.157,0.979-0.157c0.339,0,0.648,0.045,0.929,0.136
				c0.281,0.091,0.521,0.209,0.721,0.354c0.198,0.146,0.354,0.312,0.469,0.496c0.113,0.184,0.176,0.373,0.188,0.565H94.372z"/>
			<path fill="#2A2866" d="M96.433,381.247h0.403v1.517h1.333v0.351h-1.333v3.236c0,0.141,0.018,0.251,0.058,0.333
				c0.038,0.082,0.092,0.146,0.162,0.193s0.155,0.077,0.258,0.092s0.216,0.022,0.338,0.022c0.094,0,0.188-0.007,0.281-0.019
				c0.092-0.012,0.186-0.023,0.279-0.035v0.352c-0.104,0.023-0.218,0.038-0.337,0.044c-0.12,0.006-0.235,0.008-0.346,0.008
				c-0.234,0-0.423-0.022-0.567-0.069c-0.143-0.046-0.254-0.118-0.333-0.215c-0.077-0.097-0.132-0.221-0.157-0.373
				c-0.026-0.152-0.039-0.336-0.039-0.553v-3.017h-1.018v-0.351h1.018V381.247z"/>
			<path fill="#2A2866" d="M98.933,385.009c0-0.315,0.058-0.616,0.171-0.903c0.113-0.286,0.279-0.539,0.495-0.759
				c0.216-0.219,0.48-0.395,0.794-0.525c0.312-0.132,0.67-0.197,1.073-0.197c0.404,0,0.762,0.065,1.075,0.197
				c0.312,0.131,0.577,0.307,0.793,0.525c0.216,0.22,0.382,0.473,0.495,0.759c0.115,0.287,0.171,0.588,0.171,0.903
				c0,0.316-0.056,0.618-0.171,0.908c-0.113,0.289-0.279,0.544-0.495,0.763c-0.216,0.22-0.481,0.394-0.793,0.522
				c-0.313,0.127-0.671,0.192-1.075,0.192c-0.403,0-0.762-0.065-1.073-0.192c-0.313-0.129-0.578-0.303-0.794-0.522
				c-0.216-0.219-0.382-0.474-0.495-0.763C98.99,385.627,98.933,385.325,98.933,385.009z M99.336,385.009
				c0,0.258,0.043,0.507,0.131,0.75c0.089,0.242,0.22,0.459,0.398,0.648c0.179,0.19,0.401,0.345,0.666,0.461
				c0.267,0.116,0.578,0.175,0.935,0.175c0.357,0,0.669-0.059,0.936-0.175c0.265-0.116,0.487-0.271,0.666-0.461
				c0.178-0.189,0.312-0.406,0.397-0.648c0.089-0.243,0.132-0.492,0.132-0.75c0-0.251-0.043-0.5-0.132-0.745
				c-0.086-0.246-0.22-0.463-0.397-0.653c-0.179-0.189-0.401-0.344-0.666-0.461c-0.267-0.116-0.578-0.175-0.936-0.175
				c-0.356,0-0.668,0.059-0.935,0.175c-0.265,0.117-0.487,0.271-0.666,0.461c-0.179,0.19-0.31,0.407-0.398,0.653
				C99.379,384.509,99.336,384.758,99.336,385.009z"/>
			<path fill="#2A2866" d="M105.158,382.764h0.403v1.062h0.019c0.15-0.403,0.389-0.704,0.715-0.903
				c0.324-0.199,0.704-0.298,1.144-0.298c0.064,0,0.119,0.004,0.165,0.013c0.047,0.009,0.104,0.022,0.168,0.039v0.403
				c-0.047-0.017-0.104-0.03-0.171-0.038c-0.066-0.01-0.166-0.014-0.294-0.014c-0.292,0-0.548,0.051-0.767,0.152
				c-0.22,0.104-0.402,0.237-0.544,0.404c-0.145,0.166-0.253,0.358-0.324,0.574c-0.074,0.217-0.11,0.438-0.11,0.666v2.43h-0.403
				V382.764z"/>
			<path fill="#2A2866" d="M108.683,382.764h0.403v0.982h0.019c0.052-0.135,0.131-0.269,0.237-0.403
				c0.104-0.135,0.239-0.255,0.403-0.36c0.162-0.104,0.356-0.19,0.578-0.258s0.479-0.101,0.771-0.101
				c0.393,0,0.738,0.065,1.04,0.197c0.301,0.131,0.55,0.307,0.75,0.525c0.197,0.22,0.349,0.474,0.452,0.764
				c0.101,0.289,0.152,0.592,0.152,0.907c0,0.357-0.061,0.682-0.18,0.974c-0.121,0.292-0.288,0.542-0.505,0.749
				c-0.216,0.208-0.47,0.369-0.763,0.483c-0.292,0.114-0.607,0.171-0.947,0.171c-0.274,0-0.521-0.034-0.74-0.101
				c-0.22-0.068-0.411-0.155-0.575-0.264c-0.164-0.107-0.301-0.227-0.412-0.355c-0.11-0.128-0.198-0.254-0.263-0.377h-0.019v2.728
				h-0.403V382.764z M111.14,382.975c-0.422,0-0.768,0.066-1.039,0.197c-0.272,0.132-0.486,0.297-0.646,0.495
				c-0.158,0.199-0.269,0.415-0.329,0.649c-0.062,0.233-0.092,0.45-0.092,0.648c0,0.398,0.064,0.729,0.192,0.991
				c0.13,0.264,0.294,0.477,0.492,0.641c0.197,0.163,0.419,0.279,0.662,0.346c0.241,0.067,0.478,0.101,0.706,0.101
				c0.256,0,0.506-0.04,0.749-0.122s0.456-0.206,0.64-0.373c0.186-0.167,0.333-0.375,0.443-0.627
				c0.111-0.251,0.167-0.549,0.167-0.895c0-0.321-0.05-0.609-0.149-0.864c-0.099-0.254-0.236-0.469-0.407-0.645
				c-0.173-0.175-0.378-0.31-0.614-0.403C111.678,383.021,111.42,382.975,111.14,382.975z"/>
			<path fill="#2A2866" d="M114.682,380.993h0.403v0.929h-0.403V380.993z M114.682,382.764h0.403v4.49h-0.403V382.764z"/>
			<path fill="#2A2866" d="M116.574,380.993h0.403v6.261h-0.403V380.993z"/>
			<path fill="#2A2866" d="M118.575,385.097c0.006,0.28,0.056,0.539,0.153,0.776c0.098,0.236,0.236,0.442,0.416,0.618
				c0.182,0.176,0.403,0.311,0.666,0.408c0.264,0.096,0.565,0.144,0.904,0.144c0.352,0,0.64-0.048,0.868-0.144
				c0.229-0.098,0.412-0.213,0.553-0.347c0.141-0.135,0.247-0.275,0.321-0.422c0.071-0.146,0.129-0.269,0.169-0.368h0.403
				c-0.186,0.567-0.476,0.981-0.868,1.241c-0.391,0.26-0.888,0.391-1.489,0.391c-0.388,0-0.733-0.056-1.039-0.167
				c-0.309-0.11-0.569-0.271-0.785-0.482c-0.217-0.211-0.384-0.465-0.501-0.763s-0.175-0.634-0.175-1.009
				c0-0.233,0.042-0.487,0.123-0.763c0.081-0.274,0.22-0.529,0.412-0.764c0.192-0.232,0.45-0.43,0.771-0.587
				c0.322-0.157,0.723-0.236,1.201-0.236c0.393,0,0.74,0.061,1.045,0.185c0.305,0.122,0.562,0.293,0.771,0.512
				c0.211,0.22,0.373,0.481,0.483,0.785c0.111,0.304,0.169,0.635,0.176,0.991H118.575z M122.696,384.746
				c-0.04-0.305-0.123-0.569-0.245-0.794s-0.275-0.409-0.461-0.553c-0.184-0.143-0.391-0.25-0.621-0.32
				c-0.232-0.069-0.476-0.104-0.733-0.104c-0.585,0-1.052,0.159-1.403,0.478c-0.351,0.318-0.568,0.75-0.657,1.294H122.696z"/>
			<path fill="#2A2866" d="M124.486,386.377h0.456v0.877h-0.456V386.377z"/>
			<path fill="#2A2866" d="M130.791,384.176c-0.012-0.141-0.068-0.281-0.167-0.426c-0.099-0.143-0.232-0.271-0.398-0.386
				c-0.167-0.114-0.363-0.207-0.592-0.28c-0.229-0.073-0.478-0.109-0.746-0.109c-0.356,0-0.668,0.059-0.935,0.175
				c-0.265,0.117-0.488,0.272-0.666,0.465c-0.179,0.193-0.311,0.414-0.398,0.663c-0.088,0.248-0.132,0.507-0.132,0.775
				c0,0.182,0.035,0.388,0.104,0.618c0.07,0.231,0.188,0.447,0.352,0.649c0.164,0.201,0.384,0.373,0.657,0.513
				c0.275,0.14,0.614,0.21,1.018,0.21c0.229,0,0.448-0.026,0.663-0.083c0.212-0.056,0.407-0.139,0.583-0.25
				c0.175-0.11,0.324-0.251,0.45-0.421c0.126-0.169,0.217-0.37,0.269-0.604h0.403c-0.06,0.292-0.162,0.547-0.312,0.763
				s-0.329,0.395-0.54,0.535c-0.209,0.14-0.445,0.243-0.706,0.312c-0.26,0.066-0.529,0.101-0.811,0.101
				c-0.367,0-0.708-0.057-1.018-0.171s-0.576-0.274-0.801-0.479c-0.226-0.204-0.402-0.45-0.526-0.736
				c-0.126-0.286-0.189-0.605-0.189-0.956c0-0.392,0.067-0.74,0.202-1.043c0.133-0.305,0.316-0.559,0.548-0.764
				c0.23-0.205,0.5-0.359,0.807-0.465c0.308-0.105,0.634-0.157,0.978-0.157c0.339,0,0.648,0.045,0.93,0.136
				c0.28,0.091,0.521,0.209,0.72,0.354c0.198,0.146,0.355,0.312,0.469,0.496c0.113,0.184,0.177,0.373,0.189,0.565H130.791z"/>
			<path fill="#2A2866" d="M132.149,385.009c0-0.315,0.058-0.616,0.171-0.903c0.115-0.286,0.279-0.539,0.495-0.759
				c0.217-0.219,0.481-0.395,0.795-0.525c0.313-0.132,0.672-0.197,1.075-0.197s0.76,0.065,1.073,0.197
				c0.313,0.131,0.578,0.307,0.794,0.525c0.216,0.22,0.382,0.473,0.495,0.759c0.113,0.287,0.171,0.588,0.171,0.903
				c0,0.316-0.058,0.618-0.171,0.908c-0.113,0.289-0.279,0.544-0.495,0.763c-0.216,0.22-0.48,0.394-0.794,0.522
				c-0.313,0.127-0.67,0.192-1.073,0.192s-0.762-0.065-1.075-0.192c-0.313-0.129-0.578-0.303-0.795-0.522
				c-0.216-0.219-0.38-0.474-0.495-0.763C132.207,385.627,132.149,385.325,132.149,385.009z M132.553,385.009
				c0,0.258,0.045,0.507,0.132,0.75c0.088,0.242,0.222,0.459,0.399,0.648c0.179,0.19,0.4,0.345,0.667,0.461
				c0.266,0.116,0.577,0.175,0.935,0.175c0.356,0,0.666-0.059,0.933-0.175s0.488-0.271,0.666-0.461
				c0.179-0.189,0.312-0.406,0.4-0.648c0.086-0.243,0.131-0.492,0.131-0.75c0-0.251-0.045-0.5-0.131-0.745
				c-0.089-0.246-0.222-0.463-0.4-0.653c-0.178-0.189-0.399-0.344-0.666-0.461c-0.267-0.116-0.576-0.175-0.933-0.175
				c-0.357,0-0.669,0.059-0.935,0.175c-0.267,0.117-0.488,0.271-0.667,0.461c-0.178,0.19-0.312,0.407-0.399,0.653
				C132.598,384.509,132.553,384.758,132.553,385.009z"/>
			<path fill="#2A2866" d="M138.375,382.764h0.403v0.763h0.019c0.177-0.298,0.418-0.522,0.728-0.675s0.643-0.228,1-0.228
				c0.275,0,0.511,0.027,0.705,0.083c0.196,0.056,0.362,0.132,0.497,0.229c0.134,0.096,0.242,0.207,0.324,0.333
				c0.081,0.125,0.146,0.258,0.193,0.398c0.327-0.695,0.905-1.043,1.736-1.043c0.647,0,1.121,0.138,1.421,0.412
				c0.297,0.274,0.446,0.666,0.446,1.175v3.043h-0.403v-2.911c0-0.181-0.027-0.355-0.079-0.522
				c-0.053-0.167-0.137-0.313-0.254-0.438c-0.117-0.125-0.267-0.225-0.452-0.298c-0.184-0.073-0.407-0.109-0.67-0.109
				c-0.55,0-0.968,0.135-1.25,0.403c-0.285,0.269-0.425,0.64-0.425,1.113v2.763h-0.403v-2.99c0-0.397-0.114-0.712-0.339-0.943
				c-0.226-0.23-0.598-0.346-1.118-0.346c-0.245,0-0.471,0.035-0.674,0.104c-0.205,0.07-0.382,0.175-0.531,0.312
				c-0.149,0.138-0.265,0.306-0.346,0.505c-0.083,0.198-0.125,0.427-0.125,0.684v2.675h-0.403V382.764z"/>
		</g>
	</g>
	<g id="Layer_3">
		<g>
			<path d="M165.899,419.582h1.056v7.208h3.454v0.876h-4.51V419.582z"/>
			<path d="M172.714,420.23c0,0.359-0.252,0.647-0.671,0.647c-0.384,0-0.636-0.288-0.636-0.647c0-0.36,0.264-0.66,0.66-0.66
				C172.45,419.57,172.714,419.858,172.714,420.23z M171.539,427.666v-5.805h1.056v5.805H171.539z"/>
			<path d="M178.484,427.462c-0.276,0.132-0.888,0.336-1.667,0.336c-1.751,0-2.891-1.188-2.891-2.962
				c0-1.787,1.224-3.095,3.119-3.095c0.624,0,1.175,0.156,1.463,0.312l-0.24,0.804c-0.252-0.132-0.647-0.275-1.223-0.275
				c-1.332,0-2.051,0.995-2.051,2.194c0,1.344,0.864,2.171,2.015,2.171c0.6,0,0.996-0.144,1.295-0.275L178.484,427.462z"/>
			<path d="M180.239,424.955c0.024,1.428,0.923,2.016,1.991,2.016c0.755,0,1.223-0.132,1.607-0.3l0.192,0.755
				c-0.372,0.168-1.019,0.372-1.943,0.372c-1.787,0-2.854-1.188-2.854-2.938s1.032-3.118,2.723-3.118
				c1.907,0,2.399,1.655,2.399,2.723c0,0.216-0.012,0.372-0.036,0.491H180.239z M183.333,424.2c0.012-0.66-0.276-1.703-1.463-1.703
				c-1.08,0-1.535,0.972-1.619,1.703H183.333z"/>
			<path d="M185.663,423.433c0-0.612-0.012-1.092-0.048-1.571h0.936l0.06,0.959h0.024c0.288-0.539,0.959-1.079,1.919-1.079
				c0.803,0,2.051,0.479,2.051,2.471v3.454h-1.056v-3.346c0-0.936-0.348-1.716-1.343-1.716c-0.684,0-1.223,0.492-1.415,1.08
				c-0.048,0.132-0.072,0.312-0.072,0.491v3.49h-1.056V423.433z"/>
			<path d="M192.179,426.599c0.324,0.191,0.875,0.408,1.403,0.408c0.756,0,1.115-0.372,1.115-0.864c0-0.504-0.3-0.768-1.067-1.055
				c-1.055-0.384-1.547-0.948-1.547-1.644c0-0.936,0.768-1.703,2.003-1.703c0.587,0,1.104,0.156,1.415,0.36l-0.252,0.768
				c-0.228-0.145-0.647-0.349-1.187-0.349c-0.624,0-0.959,0.36-0.959,0.792c0,0.479,0.335,0.695,1.091,0.995
				c0.996,0.372,1.523,0.876,1.523,1.739c0,1.031-0.803,1.751-2.159,1.751c-0.636,0-1.223-0.168-1.631-0.407L192.179,426.599z"/>
			<path d="M197.663,424.955c0.024,1.428,0.923,2.016,1.991,2.016c0.755,0,1.223-0.132,1.607-0.3l0.192,0.755
				c-0.372,0.168-1.019,0.372-1.943,0.372c-1.787,0-2.854-1.188-2.854-2.938s1.032-3.118,2.723-3.118
				c1.907,0,2.399,1.655,2.399,2.723c0,0.216-0.012,0.372-0.036,0.491H197.663z M200.757,424.2c0.012-0.66-0.276-1.703-1.463-1.703
				c-1.08,0-1.535,0.972-1.619,1.703H200.757z"/>
			<path d="M208.088,419.15v7.017c0,0.516,0.024,1.104,0.048,1.499H207.2l-0.048-1.008h-0.036c-0.312,0.648-1.007,1.14-1.955,1.14
				c-1.403,0-2.495-1.188-2.495-2.95c-0.012-1.931,1.2-3.106,2.603-3.106c0.9,0,1.487,0.42,1.751,0.876h0.024v-3.467H208.088z
				 M207.044,424.224c0-0.132-0.012-0.312-0.048-0.443c-0.156-0.66-0.731-1.212-1.523-1.212c-1.091,0-1.739,0.96-1.739,2.231
				c0,1.175,0.588,2.146,1.715,2.146c0.708,0,1.355-0.479,1.547-1.259c0.036-0.145,0.048-0.288,0.048-0.456V424.224z"/>
			<path d="M217.256,426.071c0,0.611,0.012,1.139,0.048,1.595h-0.936l-0.06-0.947h-0.024c-0.264,0.468-0.887,1.079-1.919,1.079
				c-0.911,0-2.003-0.516-2.003-2.543v-3.394h1.056v3.202c0,1.104,0.348,1.859,1.295,1.859c0.708,0,1.199-0.492,1.391-0.972
				c0.06-0.145,0.096-0.336,0.096-0.54v-3.55h1.056V426.071z"/>
			<path d="M219.01,423.433c0-0.612-0.012-1.092-0.048-1.571h0.936l0.06,0.959h0.024c0.288-0.539,0.959-1.079,1.919-1.079
				c0.803,0,2.051,0.479,2.051,2.471v3.454h-1.056v-3.346c0-0.936-0.348-1.716-1.343-1.716c-0.684,0-1.223,0.492-1.415,1.08
				c-0.048,0.132-0.072,0.312-0.072,0.491v3.49h-1.056V423.433z"/>
			<path d="M230.671,419.15v7.017c0,0.516,0.024,1.104,0.048,1.499h-0.936l-0.048-1.008H229.7c-0.312,0.648-1.007,1.14-1.955,1.14
				c-1.403,0-2.495-1.188-2.495-2.95c-0.012-1.931,1.2-3.106,2.603-3.106c0.9,0,1.487,0.42,1.751,0.876h0.024v-3.467H230.671z
				 M229.628,424.224c0-0.132-0.012-0.312-0.048-0.443c-0.156-0.66-0.731-1.212-1.523-1.212c-1.091,0-1.739,0.96-1.739,2.231
				c0,1.175,0.588,2.146,1.715,2.146c0.708,0,1.355-0.479,1.547-1.259c0.036-0.145,0.048-0.288,0.048-0.456V424.224z"/>
			<path d="M233.026,424.955c0.024,1.428,0.923,2.016,1.991,2.016c0.755,0,1.223-0.132,1.607-0.3l0.192,0.755
				c-0.372,0.168-1.019,0.372-1.943,0.372c-1.787,0-2.854-1.188-2.854-2.938s1.032-3.118,2.723-3.118
				c1.907,0,2.399,1.655,2.399,2.723c0,0.216-0.012,0.372-0.036,0.491H233.026z M236.12,424.2c0.012-0.66-0.276-1.703-1.463-1.703
				c-1.08,0-1.535,0.972-1.619,1.703H236.12z"/>
			<path d="M238.45,423.672c0-0.684-0.012-1.271-0.048-1.811h0.923l0.048,1.151h0.036c0.264-0.779,0.912-1.271,1.619-1.271
				c0.108,0,0.192,0.012,0.288,0.024v0.995c-0.108-0.024-0.216-0.024-0.36-0.024c-0.744,0-1.271,0.552-1.416,1.344
				c-0.024,0.144-0.036,0.324-0.036,0.491v3.095h-1.056V423.672z"/>
			<path d="M246.717,425.591l-0.576,2.075h-1.883l2.458-8.084h2.399l2.519,8.084h-1.979l-0.624-2.075H246.717z M248.768,424.224
				l-0.504-1.715c-0.144-0.479-0.288-1.079-0.408-1.56h-0.024c-0.12,0.48-0.24,1.092-0.372,1.56l-0.479,1.715H248.768z"/>
			<path d="M254.445,420.218v1.583h1.307v1.344h-1.307v2.123c0,0.707,0.18,1.031,0.72,1.031c0.251,0,0.372-0.012,0.54-0.048
				l0.012,1.379c-0.228,0.084-0.672,0.156-1.176,0.156c-0.587,0-1.079-0.204-1.379-0.504c-0.336-0.348-0.504-0.911-0.504-1.739
				v-2.398h-0.779v-1.344h0.779v-1.091L254.445,420.218z"/>
			<path d="M258.849,420.218v1.583h1.307v1.344h-1.307v2.123c0,0.707,0.18,1.031,0.72,1.031c0.252,0,0.372-0.012,0.54-0.048
				l0.012,1.379c-0.228,0.084-0.672,0.156-1.176,0.156c-0.587,0-1.079-0.204-1.379-0.504c-0.336-0.348-0.504-0.911-0.504-1.739
				v-2.398h-0.779v-1.344h0.779v-1.091L258.849,420.218z"/>
			<path d="M261.213,423.732c0-0.863-0.012-1.428-0.048-1.932h1.559l0.072,1.08h0.048c0.3-0.863,1.007-1.224,1.583-1.224
				c0.168,0,0.252,0.012,0.384,0.036v1.715c-0.144-0.023-0.288-0.048-0.492-0.048c-0.671,0-1.127,0.359-1.248,0.924
				c-0.024,0.12-0.036,0.264-0.036,0.407v2.975h-1.823V423.732z"/>
			<path d="M267.657,420.17c0,0.504-0.372,0.912-0.984,0.912c-0.575,0-0.947-0.408-0.947-0.912c0-0.516,0.384-0.911,0.972-0.911
				C267.285,419.259,267.645,419.654,267.657,420.17z M265.773,427.666v-5.865h1.823v5.865H265.773z"/>
			<path d="M269.061,419.15h1.823v3.347h0.024c0.348-0.504,0.959-0.828,1.775-0.828c1.403,0,2.423,1.164,2.411,2.963
				c0,2.11-1.331,3.166-2.674,3.166c-0.684,0-1.355-0.252-1.763-0.947h-0.024l-0.072,0.815h-1.547
				c0.024-0.384,0.048-1.092,0.048-1.751V419.15z M270.884,425.172c0,0.119,0.012,0.228,0.036,0.323
				c0.12,0.479,0.54,0.863,1.068,0.863c0.779,0,1.259-0.6,1.259-1.654c0-0.912-0.408-1.632-1.259-1.632
				c-0.492,0-0.948,0.372-1.068,0.899c-0.024,0.108-0.036,0.216-0.036,0.336V425.172z"/>
			<path d="M281.767,425.783c0,0.768,0.024,1.391,0.048,1.883h-1.583l-0.084-0.827h-0.036c-0.228,0.359-0.78,0.959-1.835,0.959
				c-1.199,0-2.063-0.743-2.063-2.555v-3.442h1.823v3.154c0,0.852,0.276,1.367,0.923,1.367c0.504,0,0.804-0.348,0.912-0.635
				c0.048-0.108,0.072-0.24,0.072-0.396v-3.49h1.823V425.783z"/>
			<path d="M285.272,420.218v1.583h1.307v1.344h-1.307v2.123c0,0.707,0.18,1.031,0.72,1.031c0.251,0,0.372-0.012,0.54-0.048
				l0.012,1.379c-0.228,0.084-0.672,0.156-1.176,0.156c-0.587,0-1.079-0.204-1.379-0.504c-0.336-0.348-0.504-0.911-0.504-1.739
				v-2.398h-0.779v-1.344h0.779v-1.091L285.272,420.218z"/>
			<path d="M289.52,420.17c0,0.504-0.372,0.912-0.984,0.912c-0.575,0-0.947-0.408-0.947-0.912c0-0.516,0.384-0.911,0.972-0.911
				C289.148,419.259,289.508,419.654,289.52,420.17z M287.637,427.666v-5.865h1.823v5.865H287.637z"/>
			<path d="M296.718,424.668c0,2.146-1.523,3.13-3.094,3.13c-1.715,0-3.034-1.127-3.034-3.022c0-1.906,1.247-3.118,3.142-3.118
				C295.519,421.657,296.718,422.893,296.718,424.668z M292.472,424.728c0,1.008,0.42,1.763,1.199,1.763
				c0.72,0,1.164-0.707,1.164-1.774c0-0.863-0.336-1.751-1.164-1.751C292.808,422.965,292.472,423.864,292.472,424.728z"/>
			<path d="M297.849,423.672c0-0.731-0.024-1.343-0.048-1.871h1.583l0.084,0.816h0.036c0.24-0.384,0.828-0.948,1.811-0.948
				c1.2,0,2.1,0.804,2.1,2.531v3.466h-1.823v-3.25c0-0.756-0.264-1.271-0.924-1.271c-0.503,0-0.803,0.348-0.935,0.684
				c-0.048,0.12-0.06,0.288-0.06,0.456v3.382h-1.823V423.672z"/>
			<path d="M307.651,423.912v1.211h-3.143v-1.211H307.651z"/>
			<path d="M308.864,425.783c0.479,0.252,1.247,0.504,2.026,0.504c0.84,0,1.284-0.348,1.284-0.876c0-0.504-0.384-0.791-1.355-1.127
				c-1.344-0.48-2.231-1.224-2.231-2.399c0-1.379,1.164-2.422,3.059-2.422c0.924,0,1.583,0.18,2.063,0.407l-0.408,1.464
				c-0.312-0.156-0.899-0.385-1.679-0.385c-0.792,0-1.176,0.372-1.176,0.78c0,0.516,0.443,0.743,1.499,1.14
				c1.428,0.527,2.087,1.271,2.087,2.41c0,1.355-1.031,2.507-3.25,2.507c-0.924,0-1.835-0.252-2.291-0.504L308.864,425.783z"/>
			<path d="M315.177,419.15H317v3.358h0.023c0.192-0.264,0.433-0.468,0.72-0.611c0.276-0.145,0.612-0.229,0.948-0.229
				c1.163,0,2.051,0.804,2.051,2.579v3.418h-1.823v-3.227c0-0.768-0.264-1.295-0.947-1.295c-0.48,0-0.78,0.312-0.912,0.647
				c-0.048,0.108-0.06,0.264-0.06,0.396v3.479h-1.823V419.15z"/>
			<path d="M327.09,426.251c0,0.552,0.023,1.091,0.096,1.415h-1.644l-0.107-0.588h-0.036c-0.384,0.468-0.983,0.72-1.679,0.72
				c-1.188,0-1.896-0.863-1.896-1.799c0-1.523,1.367-2.243,3.442-2.243v-0.071c0-0.324-0.168-0.768-1.067-0.768
				c-0.6,0-1.235,0.203-1.619,0.443l-0.336-1.176c0.408-0.228,1.211-0.527,2.278-0.527c1.955,0,2.567,1.151,2.567,2.543V426.251z
				 M325.326,424.896c-0.959,0-1.703,0.228-1.703,0.924c0,0.468,0.313,0.695,0.72,0.695c0.444,0,0.828-0.3,0.947-0.672
				c0.024-0.096,0.036-0.204,0.036-0.312V424.896z"/>
			<path d="M328.545,423.732c0-0.863-0.012-1.428-0.048-1.932h1.56l0.071,1.08h0.048c0.3-0.863,1.008-1.224,1.584-1.224
				c0.167,0,0.251,0.012,0.384,0.036v1.715c-0.145-0.023-0.288-0.048-0.492-0.048c-0.672,0-1.127,0.359-1.247,0.924
				c-0.024,0.12-0.036,0.264-0.036,0.407v2.975h-1.823V423.732z"/>
			<path d="M334.412,425.315c0.048,0.756,0.804,1.115,1.655,1.115c0.624,0,1.127-0.084,1.619-0.252l0.239,1.235
				c-0.6,0.252-1.331,0.372-2.122,0.372c-1.991,0-3.131-1.151-3.131-2.986c0-1.487,0.924-3.131,2.963-3.131
				c1.895,0,2.614,1.476,2.614,2.927c0,0.312-0.036,0.588-0.06,0.72H334.412z M336.559,424.068c0-0.444-0.191-1.188-1.031-1.188
				c-0.768,0-1.079,0.707-1.127,1.188H336.559z"/>
			<path d="M341.288,425.591l-0.576,2.075h-1.883l2.459-8.084h2.398l2.519,8.084h-1.979l-0.624-2.075H341.288z M343.339,424.224
				l-0.504-1.715c-0.144-0.479-0.288-1.079-0.408-1.56h-0.023c-0.12,0.48-0.24,1.092-0.372,1.56l-0.479,1.715H343.339z"/>
			<path d="M347.145,419.15h1.823v8.516h-1.823V419.15z"/>
			<path d="M352.327,420.17c0,0.504-0.371,0.912-0.983,0.912c-0.575,0-0.947-0.408-0.947-0.912c0-0.516,0.384-0.911,0.972-0.911
				S352.315,419.654,352.327,420.17z M350.444,427.666v-5.865h1.823v5.865H350.444z"/>
			<path d="M355.556,424.271h0.023c0.133-0.252,0.276-0.491,0.42-0.707l1.188-1.764h2.195l-2.1,2.375l2.399,3.49h-2.243
				l-1.427-2.411l-0.456,0.576v1.835h-1.823v-8.516h1.823V424.271z"/>
			<path d="M361.472,425.315c0.048,0.756,0.804,1.115,1.655,1.115c0.623,0,1.127-0.084,1.619-0.252l0.239,1.235
				c-0.6,0.252-1.331,0.372-2.122,0.372c-1.991,0-3.131-1.151-3.131-2.986c0-1.487,0.924-3.131,2.963-3.131
				c1.895,0,2.614,1.476,2.614,2.927c0,0.312-0.036,0.588-0.06,0.72H361.472z M363.618,424.068c0-0.444-0.191-1.188-1.031-1.188
				c-0.768,0-1.079,0.707-1.127,1.188H363.618z"/>
			<path d="M374.813,427.45c-0.323,0.156-1.091,0.348-2.063,0.348c-2.794,0-4.233-1.751-4.233-4.054
				c0-2.759,1.967-4.281,4.413-4.281c0.948,0,1.667,0.18,1.991,0.359l-0.384,1.439c-0.359-0.156-0.875-0.3-1.535-0.3
				c-1.439,0-2.566,0.875-2.566,2.675c0,1.618,0.959,2.638,2.578,2.638c0.564,0,1.164-0.107,1.535-0.264L374.813,427.45z"/>
			<path d="M381.594,427.45c-0.324,0.156-1.092,0.348-2.063,0.348c-2.794,0-4.233-1.751-4.233-4.054
				c0-2.759,1.967-4.281,4.413-4.281c0.948,0,1.667,0.18,1.991,0.359l-0.384,1.439c-0.359-0.156-0.876-0.3-1.535-0.3
				c-1.439,0-2.566,0.875-2.566,2.675c0,1.618,0.959,2.638,2.578,2.638c0.564,0,1.164-0.107,1.535-0.264L381.594,427.45z"/>
			<path d="M385.232,419.69c0.479-0.084,1.438-0.168,2.362-0.168c1.115,0,1.799,0.108,2.398,0.456c0.563,0.3,0.96,0.852,0.96,1.595
				c0,0.708-0.42,1.367-1.332,1.715v0.024c0.924,0.24,1.607,0.947,1.607,1.979c0,0.744-0.336,1.319-0.84,1.728
				c-0.587,0.468-1.57,0.731-3.178,0.731c-0.899,0-1.571-0.06-1.979-0.12V419.69z M387.043,422.785h0.6
				c0.972,0,1.476-0.396,1.476-0.996c0-0.611-0.468-0.936-1.296-0.936c-0.407,0-0.636,0.024-0.779,0.048V422.785z M387.043,426.371
				c0.18,0.023,0.396,0.023,0.708,0.023c0.827,0,1.559-0.323,1.559-1.175c0-0.804-0.731-1.128-1.643-1.128h-0.624V426.371z"/>
			<path d="M393.942,427.666v-3.311l-2.554-4.773h2.099l0.815,1.943c0.252,0.588,0.432,1.02,0.623,1.547h0.024
				c0.18-0.504,0.372-0.971,0.611-1.547l0.816-1.943h2.051l-2.663,4.714v3.37H393.942z"/>
			<path d="M401.274,423.912v1.211h-3.143v-1.211H401.274z"/>
			<path d="M402.487,425.783c0.479,0.252,1.247,0.504,2.026,0.504c0.84,0,1.284-0.348,1.284-0.876c0-0.504-0.384-0.791-1.355-1.127
				c-1.344-0.48-2.231-1.224-2.231-2.399c0-1.379,1.164-2.422,3.059-2.422c0.924,0,1.583,0.18,2.063,0.407l-0.408,1.464
				c-0.312-0.156-0.899-0.385-1.679-0.385c-0.792,0-1.176,0.372-1.176,0.78c0,0.516,0.443,0.743,1.499,1.14
				c1.428,0.527,2.087,1.271,2.087,2.41c0,1.355-1.031,2.507-3.25,2.507c-0.924,0-1.835-0.252-2.291-0.504L402.487,425.783z"/>
			<path d="M410.791,425.591l-0.576,2.075h-1.883l2.459-8.084h2.398l2.519,8.084h-1.979l-0.624-2.075H410.791z M412.842,424.224
				l-0.504-1.715c-0.144-0.479-0.288-1.079-0.408-1.56h-0.023c-0.12,0.48-0.24,1.092-0.372,1.56l-0.479,1.715H412.842z"/>
		</g>
		<g>
			<path d="M188.845,438.766h0.925v3.186h0.021c0.147-0.263,0.378-0.504,0.662-0.662c0.273-0.157,0.599-0.252,0.946-0.252
				c0.683,0,1.777,0.42,1.777,2.166v3.027h-0.925v-2.923c0-0.82-0.305-1.503-1.178-1.503c-0.599,0-1.062,0.42-1.24,0.914
				c-0.053,0.137-0.063,0.273-0.063,0.441v3.07h-0.925V438.766z"/>
			<path d="M195.754,439.923v1.219h1.325v0.705h-1.325v2.744c0,0.63,0.179,0.988,0.694,0.988c0.252,0,0.399-0.021,0.536-0.063
				l0.042,0.704c-0.179,0.063-0.462,0.126-0.82,0.126c-0.431,0-0.778-0.146-0.999-0.389c-0.252-0.284-0.357-0.736-0.357-1.335
				v-2.775h-0.788v-0.705h0.788v-0.945L195.754,439.923z"/>
			<path d="M199.235,439.923v1.219h1.325v0.705h-1.325v2.744c0,0.63,0.179,0.988,0.694,0.988c0.252,0,0.399-0.021,0.536-0.063
				l0.042,0.704c-0.179,0.063-0.462,0.126-0.82,0.126c-0.431,0-0.778-0.146-0.999-0.389c-0.252-0.284-0.357-0.736-0.357-1.335
				v-2.775h-0.788v-0.705h0.788v-0.945L199.235,439.923z"/>
			<path d="M201.602,442.803c0-0.651-0.021-1.177-0.042-1.661h0.82l0.053,0.873h0.021c0.368-0.62,0.978-0.978,1.808-0.978
				c1.241,0,2.166,1.041,2.166,2.575c0,1.83-1.125,2.733-2.324,2.733c-0.673,0-1.262-0.294-1.566-0.799h-0.021v2.766h-0.915V442.803
				z M202.517,444.159c0,0.137,0.011,0.263,0.042,0.379c0.168,0.641,0.726,1.083,1.388,1.083c0.978,0,1.545-0.8,1.545-1.967
				c0-1.009-0.536-1.882-1.514-1.882c-0.631,0-1.23,0.442-1.398,1.136c-0.031,0.115-0.063,0.252-0.063,0.368V444.159z"/>
			<path d="M207.376,441.983c0-0.39,0.263-0.663,0.62-0.663c0.379,0,0.621,0.273,0.621,0.663c0,0.367-0.242,0.651-0.631,0.651
				C207.628,442.635,207.376,442.351,207.376,441.983z M207.376,445.694c0-0.389,0.263-0.662,0.62-0.662
				c0.379,0,0.621,0.273,0.621,0.662c0,0.368-0.242,0.651-0.631,0.651C207.628,446.346,207.376,446.063,207.376,445.694z"/>
			<path d="M208.985,446.641l2.923-7.622h0.726l-2.944,7.622H208.985z"/>
			<path d="M212.592,446.641l2.923-7.622h0.726l-2.944,7.622H212.592z"/>
			<path d="M220.604,446.052c-0.242,0.115-0.778,0.294-1.461,0.294c-1.535,0-2.534-1.04-2.534-2.597
				c0-1.566,1.072-2.712,2.733-2.712c0.547,0,1.03,0.137,1.283,0.273l-0.21,0.704c-0.221-0.115-0.567-0.242-1.072-0.242
				c-1.167,0-1.798,0.873-1.798,1.924c0,1.178,0.757,1.903,1.767,1.903c0.525,0,0.873-0.126,1.135-0.242L220.604,446.052z"/>
			<path d="M221.689,442.729c0-0.6-0.011-1.114-0.042-1.588h0.81l0.042,1.01h0.031c0.231-0.684,0.799-1.114,1.419-1.114
				c0.095,0,0.168,0.011,0.252,0.021v0.873c-0.095-0.021-0.189-0.021-0.315-0.021c-0.652,0-1.114,0.484-1.241,1.178
				c-0.021,0.126-0.031,0.284-0.031,0.431v2.713h-0.925V442.729z"/>
			<path d="M225.539,443.854c0.021,1.251,0.81,1.767,1.745,1.767c0.662,0,1.072-0.116,1.409-0.264l0.168,0.663
				c-0.326,0.146-0.894,0.325-1.703,0.325c-1.567,0-2.502-1.04-2.502-2.575s0.904-2.733,2.387-2.733c1.671,0,2.103,1.45,2.103,2.387
				c0,0.188-0.011,0.325-0.032,0.431H225.539z M228.251,443.192c0.01-0.578-0.242-1.493-1.283-1.493
				c-0.946,0-1.346,0.852-1.419,1.493H228.251z"/>
			<path d="M233.867,445.011c0,0.441,0.021,0.873,0.074,1.22h-0.831l-0.074-0.642h-0.031c-0.284,0.399-0.831,0.757-1.556,0.757
				c-1.03,0-1.556-0.725-1.556-1.461c0-1.23,1.093-1.903,3.059-1.893v-0.104c0-0.41-0.116-1.178-1.156-1.167
				c-0.484,0-0.978,0.137-1.335,0.378l-0.21-0.62c0.42-0.263,1.041-0.441,1.682-0.441c1.556,0,1.934,1.062,1.934,2.071V445.011z
				 M232.973,443.634c-1.009-0.021-2.155,0.157-2.155,1.146c0,0.61,0.4,0.884,0.862,0.884c0.673,0,1.104-0.421,1.251-0.852
				c0.032-0.105,0.042-0.211,0.042-0.295V443.634z"/>
			<path d="M236.434,439.923v1.219h1.325v0.705h-1.325v2.744c0,0.63,0.179,0.988,0.694,0.988c0.252,0,0.399-0.021,0.536-0.063
				l0.042,0.704c-0.179,0.063-0.462,0.126-0.82,0.126c-0.431,0-0.778-0.146-0.999-0.389c-0.252-0.284-0.357-0.736-0.357-1.335
				v-2.775h-0.788v-0.705h0.788v-0.945L236.434,439.923z"/>
			<path d="M239.831,439.712c0,0.315-0.221,0.568-0.589,0.568c-0.336,0-0.557-0.253-0.557-0.568s0.231-0.578,0.578-0.578
				C239.6,439.134,239.831,439.387,239.831,439.712z M238.801,446.23v-5.089h0.925v5.089H238.801z"/>
			<path d="M241.619,441.142l0.999,2.85c0.168,0.473,0.305,0.894,0.41,1.314h0.032c0.115-0.421,0.263-0.842,0.431-1.314l0.988-2.85
				h0.967l-1.998,5.089h-0.883l-1.935-5.089H241.619z"/>
			<path d="M246.73,443.854c0.021,1.251,0.81,1.767,1.745,1.767c0.662,0,1.072-0.116,1.409-0.264l0.168,0.663
				c-0.326,0.146-0.894,0.325-1.703,0.325c-1.567,0-2.502-1.04-2.502-2.575s0.904-2.733,2.387-2.733c1.671,0,2.103,1.45,2.103,2.387
				c0,0.188-0.01,0.325-0.032,0.431H246.73z M249.443,443.192c0.01-0.578-0.242-1.493-1.283-1.493c-0.946,0-1.346,0.852-1.419,1.493
				H249.443z"/>
			<path d="M255.111,446.052c-0.242,0.115-0.778,0.294-1.461,0.294c-1.535,0-2.534-1.04-2.534-2.597
				c0-1.566,1.072-2.712,2.733-2.712c0.547,0,1.03,0.137,1.283,0.273l-0.21,0.704c-0.221-0.115-0.567-0.242-1.072-0.242
				c-1.167,0-1.798,0.873-1.798,1.924c0,1.178,0.757,1.903,1.767,1.903c0.525,0,0.873-0.126,1.135-0.242L255.111,446.052z"/>
			<path d="M260.738,443.645c0,1.882-1.314,2.701-2.534,2.701c-1.367,0-2.439-1.009-2.439-2.617c0-1.692,1.125-2.691,2.523-2.691
				C259.75,441.037,260.738,442.099,260.738,443.645z M256.711,443.696c0,1.115,0.631,1.956,1.535,1.956
				c0.883,0,1.545-0.831,1.545-1.977c0-0.862-0.431-1.945-1.524-1.945C257.185,441.73,256.711,442.74,256.711,443.696z"/>
			<path d="M261.907,442.52c0-0.536-0.021-0.957-0.042-1.378h0.81l0.042,0.831h0.031c0.284-0.483,0.757-0.936,1.609-0.936
				c0.683,0,1.209,0.42,1.43,1.02h0.021c0.158-0.294,0.368-0.505,0.578-0.662c0.305-0.231,0.631-0.357,1.114-0.357
				c0.684,0,1.682,0.441,1.682,2.208v2.985h-0.904v-2.87c0-0.988-0.368-1.566-1.104-1.566c-0.536,0-0.936,0.389-1.104,0.83
				c-0.042,0.137-0.074,0.295-0.074,0.463v3.144h-0.904v-3.049c0-0.81-0.357-1.388-1.062-1.388c-0.568,0-0.999,0.463-1.146,0.925
				c-0.052,0.126-0.074,0.295-0.074,0.452v3.06h-0.904V442.52z"/>
			<path d="M270.679,442.52c0-0.536-0.021-0.957-0.042-1.378h0.81l0.042,0.831h0.031c0.284-0.483,0.757-0.936,1.609-0.936
				c0.683,0,1.209,0.42,1.43,1.02h0.021c0.158-0.294,0.368-0.505,0.578-0.662c0.305-0.231,0.631-0.357,1.114-0.357
				c0.684,0,1.682,0.441,1.682,2.208v2.985h-0.904v-2.87c0-0.988-0.368-1.566-1.104-1.566c-0.536,0-0.936,0.389-1.104,0.83
				c-0.042,0.137-0.074,0.295-0.074,0.463v3.144h-0.904v-3.049c0-0.81-0.357-1.388-1.062-1.388c-0.568,0-0.999,0.463-1.146,0.925
				c-0.052,0.126-0.074,0.295-0.074,0.452v3.06h-0.904V442.52z"/>
			<path d="M284.055,443.645c0,1.882-1.314,2.701-2.534,2.701c-1.367,0-2.439-1.009-2.439-2.617c0-1.692,1.125-2.691,2.523-2.691
				C283.067,441.037,284.055,442.099,284.055,443.645z M280.028,443.696c0,1.115,0.631,1.956,1.535,1.956
				c0.883,0,1.545-0.831,1.545-1.977c0-0.862-0.431-1.945-1.524-1.945C280.501,441.73,280.028,442.74,280.028,443.696z"/>
			<path d="M285.224,442.52c0-0.536-0.011-0.957-0.042-1.378h0.82l0.053,0.842h0.021c0.252-0.474,0.841-0.946,1.682-0.946
				c0.704,0,1.798,0.42,1.798,2.166v3.027h-0.925v-2.934c0-0.819-0.305-1.503-1.178-1.503c-0.599,0-1.072,0.431-1.24,0.946
				c-0.042,0.115-0.063,0.273-0.063,0.431v3.06h-0.925V442.52z"/>
			<path d="M290.935,445.295c0.284,0.168,0.768,0.357,1.23,0.357c0.662,0,0.978-0.326,0.978-0.757c0-0.441-0.263-0.673-0.936-0.926
				c-0.925-0.336-1.356-0.83-1.356-1.44c0-0.819,0.673-1.492,1.756-1.492c0.515,0,0.967,0.137,1.241,0.315l-0.221,0.673
				c-0.2-0.126-0.567-0.305-1.041-0.305c-0.547,0-0.841,0.315-0.841,0.693c0,0.421,0.294,0.609,0.957,0.873
				c0.873,0.325,1.335,0.768,1.335,1.524c0,0.903-0.704,1.534-1.893,1.534c-0.557,0-1.072-0.146-1.43-0.357L290.935,445.295z"/>
			<path d="M294.89,445.684c0-0.378,0.263-0.662,0.631-0.662c0.368,0,0.62,0.273,0.62,0.662c0,0.379-0.252,0.662-0.642,0.662
				C295.142,446.346,294.89,446.063,294.89,445.684z"/>
			<path d="M301.892,443.645c0,1.882-1.314,2.701-2.534,2.701c-1.367,0-2.439-1.009-2.439-2.617c0-1.692,1.125-2.691,2.523-2.691
				C300.904,441.037,301.892,442.099,301.892,443.645z M297.865,443.696c0,1.115,0.631,1.956,1.535,1.956
				c0.883,0,1.545-0.831,1.545-1.977c0-0.862-0.431-1.945-1.524-1.945C298.338,441.73,297.865,442.74,297.865,443.696z"/>
			<path d="M303.062,442.729c0-0.6-0.011-1.114-0.042-1.588h0.81l0.042,1.01h0.031c0.231-0.684,0.799-1.114,1.42-1.114
				c0.094,0,0.168,0.011,0.252,0.021v0.873c-0.095-0.021-0.189-0.021-0.315-0.021c-0.652,0-1.114,0.484-1.24,1.178
				c-0.021,0.126-0.032,0.284-0.032,0.431v2.713h-0.925V442.729z"/>
			<path d="M310.769,445.484c0,1.177-0.242,1.882-0.726,2.334c-0.505,0.452-1.22,0.609-1.86,0.609c-0.61,0-1.283-0.147-1.693-0.421
				l0.231-0.715c0.337,0.221,0.862,0.41,1.493,0.41c0.946,0,1.64-0.494,1.64-1.787v-0.558h-0.021
				c-0.273,0.474-0.831,0.852-1.619,0.852c-1.262,0-2.166-1.072-2.166-2.48c0-1.725,1.125-2.691,2.303-2.691
				c0.883,0,1.356,0.452,1.587,0.872h0.021l0.031-0.768h0.82c-0.031,0.357-0.042,0.778-0.042,1.388V445.484z M309.843,443.15
				c0-0.158-0.01-0.295-0.052-0.41c-0.169-0.547-0.61-0.988-1.294-0.988c-0.883,0-1.514,0.746-1.514,1.924
				c0,0.999,0.516,1.829,1.504,1.829c0.578,0,1.093-0.357,1.282-0.946c0.053-0.157,0.073-0.336,0.073-0.494V443.15z"/>
			<path d="M311.517,446.641l2.923-7.622h0.726l-2.943,7.622H311.517z"/>
			<path d="M315.902,438.766h0.925v7.465h-0.925V438.766z"/>
			<path d="M319.415,439.712c0,0.315-0.221,0.568-0.589,0.568c-0.336,0-0.558-0.253-0.558-0.568s0.231-0.578,0.579-0.578
				C319.184,439.134,319.415,439.387,319.415,439.712z M318.385,446.23v-5.089h0.925v5.089H318.385z"/>
			<path d="M324.473,446.052c-0.242,0.115-0.778,0.294-1.461,0.294c-1.535,0-2.534-1.04-2.534-2.597
				c0-1.566,1.072-2.712,2.733-2.712c0.547,0,1.03,0.137,1.283,0.273l-0.211,0.704c-0.221-0.115-0.567-0.242-1.072-0.242
				c-1.167,0-1.798,0.873-1.798,1.924c0,1.178,0.757,1.903,1.767,1.903c0.525,0,0.872-0.126,1.136-0.242L324.473,446.052z"/>
			<path d="M326.009,443.854c0.021,1.251,0.81,1.767,1.745,1.767c0.663,0,1.073-0.116,1.409-0.264l0.168,0.663
				c-0.325,0.146-0.894,0.325-1.703,0.325c-1.566,0-2.502-1.04-2.502-2.575s0.904-2.733,2.387-2.733c1.672,0,2.103,1.45,2.103,2.387
				c0,0.188-0.011,0.325-0.031,0.431H326.009z M328.722,443.192c0.011-0.578-0.242-1.493-1.282-1.493
				c-0.946,0-1.346,0.852-1.42,1.493H328.722z"/>
			<path d="M330.764,442.52c0-0.536-0.011-0.957-0.042-1.378h0.82l0.052,0.842h0.021c0.252-0.474,0.841-0.946,1.682-0.946
				c0.705,0,1.798,0.42,1.798,2.166v3.027h-0.925v-2.934c0-0.819-0.305-1.503-1.178-1.503c-0.599,0-1.072,0.431-1.24,0.946
				c-0.042,0.115-0.063,0.273-0.063,0.431v3.06h-0.925V442.52z"/>
			<path d="M336.475,445.295c0.283,0.168,0.768,0.357,1.229,0.357c0.663,0,0.978-0.326,0.978-0.757c0-0.441-0.263-0.673-0.936-0.926
				c-0.925-0.336-1.355-0.83-1.355-1.44c0-0.819,0.673-1.492,1.755-1.492c0.516,0,0.968,0.137,1.241,0.315l-0.221,0.673
				c-0.2-0.126-0.568-0.305-1.041-0.305c-0.547,0-0.841,0.315-0.841,0.693c0,0.421,0.294,0.609,0.956,0.873
				c0.873,0.325,1.336,0.768,1.336,1.524c0,0.903-0.705,1.534-1.893,1.534c-0.558,0-1.072-0.146-1.43-0.357L336.475,445.295z"/>
			<path d="M341.279,443.854c0.021,1.251,0.81,1.767,1.746,1.767c0.662,0,1.072-0.116,1.408-0.264l0.168,0.663
				c-0.325,0.146-0.894,0.325-1.703,0.325c-1.566,0-2.502-1.04-2.502-2.575s0.904-2.733,2.387-2.733c1.672,0,2.103,1.45,2.103,2.387
				c0,0.188-0.011,0.325-0.031,0.431H341.279z M343.992,443.192c0.011-0.578-0.242-1.493-1.282-1.493
				c-0.946,0-1.346,0.852-1.42,1.493H343.992z"/>
			<path d="M345.908,445.295c0.283,0.168,0.768,0.357,1.229,0.357c0.663,0,0.978-0.326,0.978-0.757c0-0.441-0.263-0.673-0.936-0.926
				c-0.925-0.336-1.355-0.83-1.355-1.44c0-0.819,0.673-1.492,1.755-1.492c0.516,0,0.968,0.137,1.241,0.315l-0.221,0.673
				c-0.2-0.126-0.568-0.305-1.041-0.305c-0.547,0-0.841,0.315-0.841,0.693c0,0.421,0.294,0.609,0.956,0.873
				c0.873,0.325,1.336,0.768,1.336,1.524c0,0.903-0.705,1.534-1.893,1.534c-0.558,0-1.072-0.146-1.43-0.357L345.908,445.295z"/>
			<path d="M349.421,446.641l2.923-7.622h0.726l-2.943,7.622H349.421z"/>
			<path d="M353.807,438.766h0.914v3.196h0.021c0.326-0.567,0.915-0.925,1.734-0.925c1.272,0,2.155,1.051,2.155,2.586
				c0,1.819-1.156,2.723-2.292,2.723c-0.735,0-1.324-0.283-1.713-0.945h-0.021l-0.053,0.83h-0.788
				c0.021-0.347,0.042-0.862,0.042-1.314V438.766z M354.721,444.19c0,0.116,0.011,0.231,0.043,0.337
				c0.168,0.642,0.715,1.083,1.388,1.083c0.978,0,1.545-0.789,1.545-1.956c0-1.02-0.525-1.892-1.524-1.892
				c-0.62,0-1.209,0.441-1.398,1.135c-0.031,0.116-0.053,0.242-0.053,0.39V444.19z"/>
			<path d="M360.053,441.142l1.104,3.007c0.126,0.337,0.252,0.736,0.336,1.041h0.021c0.095-0.305,0.199-0.693,0.326-1.062
				l1.009-2.986h0.978l-1.388,3.628c-0.662,1.745-1.114,2.628-1.745,3.186c-0.463,0.389-0.904,0.546-1.136,0.588l-0.23-0.767
				c0.23-0.074,0.536-0.222,0.81-0.452c0.252-0.2,0.557-0.558,0.777-1.03c0.042-0.095,0.074-0.169,0.074-0.221
				c0-0.053-0.021-0.127-0.074-0.242l-1.871-4.689H360.053z"/>
			<path d="M366.773,443.056v0.673h-2.597v-0.673H366.773z"/>
			<path d="M367.731,445.295c0.283,0.168,0.768,0.357,1.229,0.357c0.663,0,0.978-0.326,0.978-0.757c0-0.441-0.263-0.673-0.936-0.926
				c-0.925-0.336-1.355-0.83-1.355-1.44c0-0.819,0.673-1.492,1.755-1.492c0.516,0,0.968,0.137,1.241,0.315l-0.221,0.673
				c-0.2-0.126-0.568-0.305-1.041-0.305c-0.547,0-0.841,0.315-0.841,0.693c0,0.421,0.294,0.609,0.956,0.873
				c0.873,0.325,1.336,0.768,1.336,1.524c0,0.903-0.705,1.534-1.893,1.534c-0.558,0-1.072-0.146-1.43-0.357L367.731,445.295z"/>
			<path d="M375.597,445.011c0,0.441,0.021,0.873,0.074,1.22h-0.831l-0.073-0.642h-0.032c-0.283,0.399-0.83,0.757-1.556,0.757
				c-1.03,0-1.556-0.725-1.556-1.461c0-1.23,1.093-1.903,3.06-1.893v-0.104c0-0.41-0.116-1.178-1.157-1.167
				c-0.483,0-0.978,0.137-1.335,0.378l-0.21-0.62c0.42-0.263,1.041-0.441,1.682-0.441c1.557,0,1.935,1.062,1.935,2.071V445.011z
				 M374.703,443.634c-1.009-0.021-2.155,0.157-2.155,1.146c0,0.61,0.399,0.884,0.862,0.884c0.673,0,1.104-0.421,1.251-0.852
				c0.031-0.105,0.042-0.211,0.042-0.295V443.634z"/>
			<path d="M376.313,446.641l2.923-7.622h0.726l-2.943,7.622H376.313z"/>
			<path d="M380.625,445.179c0.263,0.158,0.861,0.421,1.514,0.421c1.178,0,1.556-0.746,1.545-1.324
				c-0.01-0.957-0.872-1.367-1.766-1.367h-0.516v-0.693h0.516c0.673,0,1.524-0.348,1.524-1.157c0-0.546-0.348-1.03-1.199-1.03
				c-0.546,0-1.072,0.242-1.366,0.452l-0.252-0.673c0.367-0.263,1.062-0.525,1.797-0.525c1.346,0,1.956,0.799,1.956,1.63
				c0,0.715-0.432,1.313-1.262,1.618v0.021c0.841,0.158,1.514,0.788,1.524,1.745c0,1.094-0.862,2.05-2.491,2.05
				c-0.768,0-1.44-0.241-1.777-0.462L380.625,445.179z"/>
			<path d="M385.873,445.684c0-0.378,0.263-0.662,0.631-0.662s0.62,0.273,0.62,0.662c0,0.379-0.252,0.662-0.642,0.662
				C386.125,446.346,385.873,446.063,385.873,445.684z"/>
			<path d="M392.528,442.74c0,2.323-0.873,3.605-2.376,3.605c-1.335,0-2.25-1.251-2.271-3.511c0-2.303,0.998-3.554,2.386-3.554
				C391.697,439.281,392.528,440.563,392.528,442.74z M388.817,442.845c0,1.777,0.547,2.786,1.388,2.786
				c0.936,0,1.388-1.104,1.388-2.849c0-1.683-0.421-2.786-1.388-2.786C389.406,439.996,388.817,440.984,388.817,442.845z"/>
		</g>
	</g>
</g>
<g id="Layer_1">
	<g>
		<g>
			
				<radialGradient id="SVGID_4_" cx="516.1104" cy="297.2666" r="29.9349" gradientTransform="matrix(1.0142 0 0 1.014 -3.9671 -3.0025)" gradientUnits="userSpaceOnUse">
				<stop  offset="0" style="stop-color:#48ABD3"/>
				<stop  offset="1" style="stop-color:#237D99"/>
			</radialGradient>
			<path fill="url(#SVGID_4_)" d="M487.525,320.233c3.945-0.943,7.842-1.873,11.774-2.761c9.617-2.166,18.013-3.217,25.662-3.217
				c6.63,0,12.939,0.825,18.755,2.456c0.061,0.017,0.113,0.045,0.172,0.065c0.423-2.248,0.653-4.563,0.653-6.935
				c0-20.634-16.732-37.363-37.37-37.363s-37.37,16.729-37.37,37.363c0,4.898,0.953,9.571,2.667,13.858
				C477.375,322.65,482.382,321.461,487.525,320.233z"/>
			<linearGradient id="SVGID_5_" gradientUnits="userSpaceOnUse" x1="505.3887" y1="275.8115" x2="507.6072" y2="318.1431">
				<stop  offset="0" style="stop-color:#48ABD3"/>
				<stop  offset="0.2271" style="stop-color:#45A6CC"/>
				<stop  offset="0.5429" style="stop-color:#3B98BA"/>
				<stop  offset="0.9093" style="stop-color:#2883A0"/>
				<stop  offset="1" style="stop-color:#237D99"/>
			</linearGradient>
			<path opacity="0.4" fill="url(#SVGID_5_)" d="M474.598,319.873c-1.003-3.244-1.509-6.605-1.509-10.03
				c0-18.79,15.29-34.077,34.083-34.077s34.084,15.287,34.084,34.077c0,0.939-0.041,1.886-0.121,2.834
				c-5.118-1.135-10.54-1.708-16.173-1.708c-7.901,0-16.532,1.079-26.384,3.298c-3.811,0.86-7.453,1.728-11.817,2.771
				C482.268,318.108,478.379,319.031,474.598,319.873z"/>
			
				<radialGradient id="SVGID_6_" cx="517.8213" cy="335.1709" r="18.5951" gradientTransform="matrix(1.0142 0 0 1.014 -3.9671 -3.0025)" gradientUnits="userSpaceOnUse">
				<stop  offset="0" style="stop-color:#48ABD3"/>
				<stop  offset="1" style="stop-color:#237D99"/>
			</radialGradient>
			<path fill="url(#SVGID_6_)" d="M510.836,332.369c-3.897,0.934-7.786,1.859-11.71,2.742c-5.983,1.351-11.491,2.266-16.644,2.767
				c6.585,5.801,15.224,9.328,24.689,9.328c14.754,0,27.508-8.551,33.582-20.964C531.186,327.523,521.281,329.875,510.836,332.369z"
				/>
			<linearGradient id="SVGID_7_" gradientUnits="userSpaceOnUse" x1="512.584" y1="331.7354" x2="513.2086" y2="343.6526">
				<stop  offset="0" style="stop-color:#48ABD3"/>
				<stop  offset="0.2271" style="stop-color:#45A6CC"/>
				<stop  offset="0.5429" style="stop-color:#3B98BA"/>
				<stop  offset="0.9093" style="stop-color:#2883A0"/>
				<stop  offset="1" style="stop-color:#237D99"/>
			</linearGradient>
			<path opacity="0.4" fill="url(#SVGID_7_)" d="M507.172,343.921c-5.564,0-10.996-1.36-15.849-3.914
				c2.731-0.459,5.563-1.021,8.526-1.688c3.896-0.878,7.782-1.803,11.752-2.753c7.491-1.79,15.179-3.625,22.618-4.964
				C527.85,338.948,517.981,343.921,507.172,343.921z"/>
		</g>
		
			<radialGradient id="SVGID_8_" cx="496.1348" cy="324.751" r="30.5685" gradientTransform="matrix(1.0142 0 0 1.014 -3.9671 -3.0025)" gradientUnits="userSpaceOnUse">
			<stop  offset="0" style="stop-color:#63CCF5"/>
			<stop  offset="1" style="stop-color:#30AED5"/>
		</radialGradient>
		<path fill="url(#SVGID_8_)" d="M473.467,333.611c-6.229,0-12.035-0.756-17.482-2.28c10.541-1.228,21.406-3.82,32.727-6.527
			c3.838-0.917,7.714-1.84,11.63-2.724c9.269-2.087,17.323-3.101,24.621-3.101c6.227,0,12.033,0.752,17.48,2.278
			c-10.553,1.226-21.424,3.826-32.753,6.53c-3.829,0.913-7.698,1.837-11.602,2.722C488.819,332.596,480.765,333.611,473.467,333.611
			z"/>
		<circle fill="#FFFFFF" cx="525.448" cy="298.391" r="6.102"/>
		<circle fill="#FFFFFF" cx="492.125" cy="286.051" r="2.614"/>
		<path fill="#FFFFFF" d="M517.83,283.44c0-1.447-1.171-2.618-2.616-2.618c-1.442,0-2.612,1.171-2.612,2.618
			c0,1.438,1.17,2.61,2.612,2.61C516.659,286.051,517.83,284.879,517.83,283.44z"/>
		<circle fill="#FFFFFF" cx="506.106" cy="308.042" r="2.613"/>
		<circle fill="#FFFFFF" cx="491.26" cy="299.791" r="4.702"/>
		<circle fill="#FFFFFF" cx="504.981" cy="291.7" r="1.76"/>
		<circle fill="#FFFFFF" cx="478.121" cy="312.417" r="1.76"/>
		<circle fill="#FFFFFF" cx="539.726" cy="308.042" r="1.76"/>
	</g>
	<g>
		<path fill="#7FB050" d="M484.193,193.593c4.635-1.504,8.623-4.067,11.807-7.322l-22.957-7.457
			c-5.205,2.991-9.238,7.464-11.74,12.684C468.08,195.163,476.286,196.163,484.193,193.593z"/>
		<g>
			<path fill="#7FB050" stroke="#F9F9FA" stroke-width="1.5312" stroke-miterlimit="10" d="M502.373,209.172
				c0-4.872-1.202-9.457-3.316-13.492l-14.187,19.525c1.239,5.872,4.246,11.095,8.438,15.084
				C498.891,224.978,502.373,217.479,502.373,209.172z"/>
			<path fill="#DDAD2B" stroke="#F9F9FA" stroke-width="1.5312" stroke-miterlimit="10" d="M485.203,196.693
				c4.633-1.505,9.365-1.777,13.854-1.013l-14.187,19.524c-5.971,0.637-11.866-0.608-16.957-3.363
				C471.242,204.892,477.296,199.263,485.203,196.693z"/>
			<path fill="#7FB050" stroke="#F9F9FA" stroke-width="1.5312" stroke-miterlimit="10" d="M522.81,196.693
				c-4.635-1.505-9.366-1.777-13.858-1.013l14.189,19.524c5.969,0.637,11.866-0.608,16.957-3.364
				C536.767,204.892,530.717,199.263,522.81,196.693z"/>
			<path fill="#DDAD2B" stroke="#F9F9FA" stroke-width="1.5312" stroke-miterlimit="10" d="M505.635,209.172
				c0-4.875,1.205-9.457,3.318-13.492l14.188,19.525c-1.237,5.872-4.248,11.095-8.44,15.084
				C509.121,224.978,505.635,217.479,505.635,209.172z"/>
			<path fill="#7FB050" stroke="#F9F9FA" stroke-width="1.5312" stroke-miterlimit="10" d="M517.258,173.41
				c-2.864,3.938-4.586,8.355-5.249,12.861l22.958-7.457c2.45-5.483,3.085-11.473,2.039-17.164
				C529.37,162.667,522.144,166.683,517.258,173.41z"/>
			<path fill="#DDAD2B" stroke="#F9F9FA" stroke-width="1.5312" stroke-miterlimit="10" d="M523.814,193.593
				c-4.631-1.506-8.622-4.067-11.806-7.322l22.958-7.457c5.203,2.991,9.24,7.464,11.739,12.684
				C539.929,195.163,531.723,196.163,523.814,193.593z"/>
			<path fill="#7FB050" stroke="#F9F9FA" stroke-width="1.5312" stroke-miterlimit="10" d="M493.392,171.492
				c2.864,3.94,6.531,6.94,10.614,8.964v-24.135c-4.457-4.024-9.96-6.479-15.695-7.243
				C486.918,156.655,488.505,164.766,493.392,171.492z"/>
			<path fill="#DDAD2B" stroke="#F9F9FA" stroke-width="1.5312" stroke-miterlimit="10" d="M514.618,171.492
				c-2.862,3.94-6.531,6.94-10.613,8.964l0.001-24.135c4.453-4.024,9.957-6.479,15.693-7.243
				C521.093,156.655,519.506,164.766,514.618,171.492z"/>
			<path fill="#DDAD2B" stroke="#F9F9FA" stroke-width="1.5312" stroke-miterlimit="10" d="M490.754,173.41
				c2.864,3.938,4.584,8.355,5.246,12.861l-22.957-7.457c-2.45-5.483-3.085-11.473-2.04-17.164
				C478.643,162.667,485.868,166.683,490.754,173.41z"/>
		</g>
		<g opacity="0.8">
			<linearGradient id="SVGID_9_" gradientUnits="userSpaceOnUse" x1="489.8477" y1="214.4531" x2="497.7803" y2="214.4531">
				<stop  offset="0" style="stop-color:#000000"/>
				<stop  offset="0.0896" style="stop-color:#000000;stop-opacity:0.9104"/>
				<stop  offset="1" style="stop-color:#000000;stop-opacity:0"/>
			</linearGradient>
			<path fill="url(#SVGID_9_)" d="M493.311,223.304c-1.535-2.175-2.704-4.577-3.463-7.136l7.678-10.566
				c0.168,1.17,0.255,2.361,0.255,3.57C497.78,214.318,496.218,219.201,493.311,223.304z"/>
			<linearGradient id="SVGID_10_" gradientUnits="userSpaceOnUse" x1="474.5605" y1="205.4922" x2="490.0898" y2="205.4922">
				<stop  offset="0" style="stop-color:#000000"/>
				<stop  offset="0.0896" style="stop-color:#000000;stop-opacity:0.9104"/>
				<stop  offset="1" style="stop-color:#000000;stop-opacity:0"/>
			</linearGradient>
			<path fill="url(#SVGID_10_)" d="M481.8,210.775c-2.448,0-4.894-0.376-7.239-1.102c3.005-4.028,7.166-7.021,12.06-8.611
				c1.14-0.369,2.3-0.654,3.47-0.854l-7.673,10.557C482.21,210.771,482.005,210.775,481.8,210.775z"/>
			<linearGradient id="SVGID_11_" gradientUnits="userSpaceOnUse" x1="517.9209" y1="205.4922" x2="533.4473" y2="205.4922">
				<stop  offset="0" style="stop-color:#000000"/>
				<stop  offset="0.0896" style="stop-color:#000000;stop-opacity:0.9104"/>
				<stop  offset="1" style="stop-color:#000000;stop-opacity:0"/>
			</linearGradient>
			<path fill="url(#SVGID_11_)" d="M526.211,210.775c-0.207,0-0.412-0.005-0.616-0.011l-7.674-10.557
				c1.171,0.2,2.327,0.485,3.468,0.854c4.896,1.59,9.055,4.583,12.059,8.611C531.104,210.399,528.659,210.775,526.211,210.775
				L526.211,210.775z"/>
			<linearGradient id="SVGID_12_" gradientUnits="userSpaceOnUse" x1="510.2305" y1="214.4531" x2="518.1611" y2="214.4531">
				<stop  offset="0" style="stop-color:#000000"/>
				<stop  offset="0.0896" style="stop-color:#000000;stop-opacity:0.9104"/>
				<stop  offset="1" style="stop-color:#000000;stop-opacity:0"/>
			</linearGradient>
			<path fill="url(#SVGID_12_)" d="M514.698,223.304c-2.906-4.103-4.468-8.985-4.468-14.132c0-1.209,0.084-2.4,0.255-3.57
				l7.676,10.566C517.403,218.727,516.235,221.129,514.698,223.304z"/>
			<linearGradient id="SVGID_13_" gradientUnits="userSpaceOnUse" x1="519.082" y1="173.2207" x2="532.8984" y2="173.2207">
				<stop  offset="0" style="stop-color:#000000"/>
				<stop  offset="0.0896" style="stop-color:#000000;stop-opacity:0.9104"/>
				<stop  offset="1" style="stop-color:#000000;stop-opacity:0"/>
			</linearGradient>
			<path fill="url(#SVGID_13_)" d="M519.082,179.143c0.552-1.047,1.183-2.059,1.891-3.034c3.027-4.166,7.161-7.199,11.926-8.811
				c-0.035,2.663-0.502,5.296-1.395,7.809L519.082,179.143z"/>
			<linearGradient id="SVGID_14_" gradientUnits="userSpaceOnUse" x1="521.9238" y1="187.1387" x2="540.0547" y2="187.1387">
				<stop  offset="0" style="stop-color:#000000"/>
				<stop  offset="0.0896" style="stop-color:#000000;stop-opacity:0.9104"/>
				<stop  offset="1" style="stop-color:#000000;stop-opacity:0"/>
			</linearGradient>
			<path fill="url(#SVGID_14_)" d="M532.821,190.432c-2.564,0-5.117-0.408-7.586-1.208c-1.146-0.372-2.252-0.82-3.312-1.343
				l12.421-4.035c2.196,1.509,4.119,3.36,5.71,5.489C537.712,190.057,535.27,190.432,532.821,190.432z"/>
			<linearGradient id="SVGID_15_" gradientUnits="userSpaceOnUse" x1="492.416" y1="163.1274" x2="499.4121" y2="163.1274">
				<stop  offset="0" style="stop-color:#000000"/>
				<stop  offset="0.0896" style="stop-color:#000000;stop-opacity:0.9104"/>
				<stop  offset="1" style="stop-color:#000000;stop-opacity:0"/>
			</linearGradient>
			<path fill="url(#SVGID_15_)" d="M499.412,171.526c-0.827-0.849-1.596-1.758-2.305-2.732c-3.026-4.168-4.632-9.034-4.691-14.065
				c2.52,0.859,4.878,2.115,6.996,3.739V171.526z"/>
			<linearGradient id="SVGID_16_" gradientUnits="userSpaceOnUse" x1="508.5986" y1="163.1274" x2="515.5957" y2="163.1274">
				<stop  offset="0" style="stop-color:#000000"/>
				<stop  offset="0.0896" style="stop-color:#000000;stop-opacity:0.9104"/>
				<stop  offset="1" style="stop-color:#000000;stop-opacity:0"/>
			</linearGradient>
			<path fill="url(#SVGID_16_)" d="M508.6,158.468c2.116-1.624,4.473-2.88,6.996-3.739c-0.062,5.031-1.665,9.897-4.695,14.063
				c-0.709,0.976-1.477,1.885-2.302,2.734L508.6,158.468z"/>
			<linearGradient id="SVGID_17_" gradientUnits="userSpaceOnUse" x1="467.9541" y1="187.1387" x2="486.0869" y2="187.1387">
				<stop  offset="0" style="stop-color:#000000"/>
				<stop  offset="0.0896" style="stop-color:#000000;stop-opacity:0.9104"/>
				<stop  offset="1" style="stop-color:#000000;stop-opacity:0"/>
			</linearGradient>
			<path fill="url(#SVGID_17_)" d="M475.188,190.432c-2.446,0-4.89-0.375-7.233-1.097c1.594-2.129,3.516-3.98,5.712-5.489
				l12.421,4.035c-1.06,0.523-2.165,0.972-3.312,1.343C480.307,190.024,477.755,190.432,475.188,190.432L475.188,190.432z"/>
			<linearGradient id="SVGID_18_" gradientUnits="userSpaceOnUse" x1="475.1113" y1="173.2207" x2="488.9248" y2="173.2207">
				<stop  offset="0" style="stop-color:#000000"/>
				<stop  offset="0.0896" style="stop-color:#000000;stop-opacity:0.9104"/>
				<stop  offset="1" style="stop-color:#000000;stop-opacity:0"/>
			</linearGradient>
			<path fill="url(#SVGID_18_)" d="M476.505,175.107c-0.89-2.517-1.358-5.146-1.394-7.809c4.764,1.611,8.897,4.645,11.926,8.811
				c0.708,0.975,1.338,1.987,1.888,3.034L476.505,175.107z"/>
		</g>
	</g>
	<g>
		<path fill="#033B59" d="M52.907,81.807c0.206,0.534,0.753,0.855,1.326,0.813c19.124-1.307,38.25-0.813,57.126,1.444
			c2.381,0.285,4.776-0.919,5.56-3.185c0.678-1.955-0.844-3.923-2.913-3.995c-20.333-0.688-40.587,0.618-60.479,3.87
			C53.037,80.837,52.731,81.34,52.907,81.807z"/>
		<path fill="#00996D" d="M51.726,61.44c-0.131,0.503,0.287,0.974,0.807,0.938c20.67-1.434,41.353-0.893,61.764,1.582
			c2.014,0.246,3.754-1.522,3.2-3.473c-0.673-2.374-2.917-3.919-5.385-3.984c-19.841-0.515-39.609,0.754-59.066,3.765
			C52.413,60.364,51.886,60.819,51.726,61.44z"/>
		<path fill="#F7921E" d="M61.282,70.17c-0.473,0.079-0.769,0.532-0.739,1.009c0.03,0.463,0.396,0.854,0.858,0.818
			c20.812-1.551,33.398-0.466,53.117,2.209c2.156,0.292,4.19-1.219,4.259-3.392c0.072-2.218-1.757-3.984-3.974-4.074
			C94.546,65.932,81.861,66.757,61.282,70.17z"/>
		<path fill="#F7921E" d="M100.395,41.899c1.333,0.072,1.817-1.727,0.632-2.343c-0.844-0.44-1.714-0.846-2.61-1.219
			c-9.459-3.939-19.68-3.287-28.196,0.93c-1.198,0.592-0.633,2.369,0.702,2.325C80.762,41.275,90.596,41.379,100.395,41.899z"/>
		<path fill="#033B59" d="M67.728,48.877c-1.009,0.136-1.937,0.671-2.507,1.514c-0.378,0.558,0.063,1.296,0.736,1.26
			c17.251-0.923,27.972-0.258,44.323,1.609c1.88,0.213,3.198-1.859,2.095-3.397c-1.709-2.385-4.573-3.62-7.506-3.639
			C90.842,46.134,82.332,46.911,67.728,48.877z"/>
		<path fill="#00996D" d="M72.656,98.666c-1.491,0.162-1.793,2.21-0.399,2.76c9.629,3.801,20.029,2.897,28.572-1.677
			c1.341-0.718,0.71-2.724-0.811-2.704C90.854,97.154,81.724,97.695,72.656,98.666z"/>
		<path fill="#F7921E" d="M111.562,90.72c1.198-1.534,0.098-3.754-1.849-3.807c-16.281-0.424-28.788,0.175-45.206,2.647
			c-0.616,0.09-0.942,0.802-0.544,1.279c0.545,0.66,1.38,1.008,2.234,0.97c14.282-0.68,24.54,0.167,38.128,1.679
			C107.06,93.794,109.871,92.89,111.562,90.72z"/>
	</g>
	<g>
		<linearGradient id="SVGID_19_" gradientUnits="userSpaceOnUse" x1="319.6504" y1="309.8428" x2="411.4746" y2="309.8428">
			<stop  offset="0" style="stop-color:#E6175B"/>
			<stop  offset="0.0874" style="stop-color:#DE1A5D"/>
			<stop  offset="0.2378" style="stop-color:#C82162"/>
			<stop  offset="0.4329" style="stop-color:#A7286A"/>
			<stop  offset="0.6653" style="stop-color:#7D2E75"/>
			<stop  offset="0.9264" style="stop-color:#403282"/>
			<stop  offset="1" style="stop-color:#273386"/>
		</linearGradient>
		<path fill="url(#SVGID_19_)" d="M393.254,292.883c-5.218,0-9.921,2.198-13.245,5.717l-14.589-14.588
			c1.522-1.83,2.443-4.181,2.443-6.747c0-5.824-4.725-10.546-10.55-10.547c-5.822,0-10.546,4.723-10.546,10.547
			c0,5.825,4.723,10.545,10.546,10.545c2.296,0,4.415-0.738,6.146-1.986l14.856,14.854c-0.737,1.053-1.367,2.187-1.869,3.388
			l-14.035-5.79c0.453-1.725-0.411-3.56-2.106-4.258c-1.852-0.762-3.965,0.118-4.728,1.966s0.12,3.964,1.969,4.728
			c1.571,0.645,3.33,0.098,4.291-1.218l14.137,5.829c-0.333,1.003-0.586,2.041-0.745,3.111h-41.268
			c-0.47-3.515-3.475-6.229-7.121-6.229c-3.97,0-7.19,3.219-7.19,7.189c0,3.973,3.221,7.19,7.19,7.19c3.382,0,6.212-2.335,6.98-5.48
			h41.215c0,1.32,0.145,2.611,0.411,3.854l-13.609,5.608c-0.959-1.315-2.72-1.863-4.291-1.216c-1.849,0.762-2.731,2.881-1.969,4.726
			c0.763,1.848,2.876,2.73,4.728,1.968c1.695-0.697,2.56-2.535,2.106-4.263l13.369-5.513c0.461,1.558,1.12,3.028,1.956,4.382
			l-13.673,13.67c-1.831-1.524-4.182-2.444-6.751-2.444c-5.822,0-10.544,4.723-10.546,10.55c0,5.824,4.724,10.546,10.546,10.542
			c5.828,0,10.55-4.718,10.55-10.542c0-2.295-0.741-4.415-1.987-6.146l13.444-13.445c3.344,3.964,8.343,6.484,13.934,6.484
			c10.063,0,18.221-8.158,18.221-18.216C411.475,301.041,403.317,292.883,393.254,292.883z M396.919,321.729
			c-5.87,0-10.628-4.76-10.628-10.625c0-5.869,4.758-10.626,10.628-10.626s10.626,4.757,10.626,10.626
			C407.545,316.969,402.789,321.729,396.919,321.729z"/>
		<linearGradient id="SVGID_20_" gradientUnits="userSpaceOnUse" x1="322.6934" y1="309.8428" x2="401.0107" y2="309.8428">
			<stop  offset="0" style="stop-color:#E6175B"/>
			<stop  offset="0.0874" style="stop-color:#DE1A5D"/>
			<stop  offset="0.2378" style="stop-color:#C82162"/>
			<stop  offset="0.4329" style="stop-color:#A7286A"/>
			<stop  offset="0.6653" style="stop-color:#7D2E75"/>
			<stop  offset="0.9264" style="stop-color:#403282"/>
			<stop  offset="1" style="stop-color:#273386"/>
		</linearGradient>
		<path fill="url(#SVGID_20_)" d="M357.307,349.926c-4.134,0-7.496-3.365-7.496-7.5c0.001-4.14,3.367-7.508,7.503-7.508
			c1.775,0,3.437,0.602,4.804,1.74l0.702,0.584l0.587,0.815c0.925,1.284,1.414,2.794,1.414,4.368c0,4.135-3.367,7.5-7.507,7.5
			H357.307z M393.254,326.277c-4.48,0-8.711-1.97-11.608-5.403l-0.727-0.862l-0.593-0.959c-0.699-1.132-1.247-2.359-1.627-3.646
			l-0.157-0.531l-0.12-0.557c-0.228-1.061-0.344-2.143-0.344-3.215v-1.136l0.161-1.089c0.128-0.867,0.338-1.741,0.623-2.599
			l0.17-0.511l0.222-0.532c0.41-0.98,0.933-1.928,1.556-2.818l0.64-0.914l0.771-0.815c2.903-3.072,6.822-4.765,11.034-4.765
			c2.832,0,5.486,0.779,7.757,2.137c-1.292-0.407-2.667-0.626-4.092-0.626c-7.538,0-13.671,6.132-13.671,13.668
			s6.133,13.667,13.671,13.667c1.422,0,2.794-0.218,4.083-0.623C398.733,325.5,396.083,326.277,393.254,326.277z M358.927,323.276
			c-0.179,0-0.426-0.095-0.536-0.361c-0.075-0.181-0.04-0.337,0.001-0.438c0.042-0.101,0.131-0.237,0.314-0.313
			c0.07-0.029,0.139-0.043,0.21-0.043c0.178,0,0.355,0.092,0.463,0.238l0.061,0.084l0.03,0.111c0.063,0.239-0.029,0.557-0.321,0.677
			C359.073,323.261,359.001,323.276,358.927,323.276z M326.841,313.542c-2.287,0-4.147-1.861-4.147-4.148
			c0-2.286,1.86-4.147,4.147-4.147c2.067,0,3.832,1.543,4.105,3.59l0.104,0.786l-0.185,0.76
			C330.411,312.242,328.756,313.542,326.841,313.542z M358.913,297.938c-0.071,0-0.141-0.014-0.21-0.043
			c-0.291-0.119-0.434-0.458-0.313-0.752c0.109-0.265,0.356-0.359,0.535-0.359c0.075,0,0.147,0.016,0.222,0.046
			c0.296,0.121,0.386,0.429,0.322,0.67l-0.031,0.118l-0.058,0.08C359.271,297.847,359.094,297.938,358.913,297.938z
			 M357.313,284.768c-4.137,0-7.503-3.365-7.503-7.503c0-4.139,3.366-7.505,7.503-7.505c4.139,0.001,7.507,3.368,7.507,7.505
			c0,1.772-0.602,3.434-1.739,4.802l-0.584,0.7l-0.815,0.589C360.398,284.279,358.89,284.768,357.313,284.768z"/>
	</g>
	<g>
		<path fill="#00AEEF" d="M119.314,297.692c0.165-0.946,0.311-1.906,0.439-2.875c-5.613-0.638-11.486-0.656-17.489,0.031
			c-16.726,1.911-31.251,8.902-41.177,18.637c0.476,1.166,0.974,2.308,1.489,3.422c9.934-9.905,24.598-17.03,41.511-18.963
			C109.288,297.348,114.392,297.286,119.314,297.692z"/>
		<linearGradient id="SVGID_21_" gradientUnits="userSpaceOnUse" x1="55.6309" y1="294.9473" x2="120.2173" y2="294.9473">
			<stop  offset="0" style="stop-color:#8DC63F"/>
			<stop  offset="0.1889" style="stop-color:#7BB43F"/>
			<stop  offset="0.5394" style="stop-color:#52933F"/>
			<stop  offset="1" style="stop-color:#006838"/>
		</linearGradient>
		<path fill="url(#SVGID_21_)" d="M104.107,292.558c5.439-0.46,10.761-0.377,15.887,0.178c0.079-0.758,0.151-1.521,0.206-2.292
			c0.225-3.135-1.778-6-4.778-6.933c-18.674-5.799-36.305-5.8-54.978-0.005c-3.001,0.932-5.02,3.787-4.797,6.921
			c0.528,7.393,2.148,14.174,4.388,20.308C70.911,300.877,86.443,294.043,104.107,292.558z"/>
		<path fill="#0B1B5E" d="M55.819,285.455c0.549-2.285,2.286-4.181,4.625-4.907c18.672-5.795,36.303-5.792,54.978,0.005
			c2.337,0.726,4.063,2.627,4.608,4.912c0.063-0.628,0.125-1.256,0.17-1.892c0.225-3.133-1.778-6.001-4.778-6.932
			c-18.674-5.799-36.305-5.8-54.978-0.006c-3.001,0.931-5.02,3.787-4.797,6.92C55.693,284.195,55.758,284.824,55.819,285.455z"/>
		<path fill="#0B1B5E" d="M112.757,302.623c-18.896,3.788-34.36,13.966-43.101,26.742c5.185,7.614,10.651,13.188,14.238,16.464
			c2.275,2.075,5.767,2.092,8.043,0.014c7.059-6.439,21.435-21.826,26.572-44.15C116.602,301.931,114.684,302.237,112.757,302.623z"
			/>
	</g>
	<g>
		<path fill="#9BCC55" d="M471.276,86.431c0.241,0.538,0.821,0.833,1.408,0.76c19.548-2.45,39.204-3.048,58.706-1.823
			c2.459,0.155,4.849-1.218,5.521-3.589c0.583-2.046-1.092-3.978-3.221-3.93c-20.905,0.469-41.613,2.982-61.839,7.468
			C471.353,85.429,471.068,85.961,471.276,86.431z"/>
		<path fill="#1E7D3F" d="M479.271,75.356c-0.477,0.118-0.742,0.592-0.67,1.058c0.069,0.451,0.479,0.801,0.948,0.727
			c21.177-3.396,34.156-3.458,54.577-2.604c2.233,0.093,4.187-1.574,4.067-3.714c-0.117-2.185-2.141-3.755-4.417-3.642
			C512.963,68.208,500.047,70.156,479.271,75.356z"/>
		<path fill="#9BCC55" d="M492.552,102.202c-1.528,0.209-1.779,2.323-0.33,2.847c10.009,3.617,20.665,2.378,29.305-2.575
			c1.356-0.779,0.65-2.82-0.914-2.756C511.2,100.104,501.838,100.935,492.552,102.202z"/>
		<path fill="#1E7D3F" d="M531.984,92.185c1.138-1.643-0.118-3.857-2.117-3.798c-16.733,0.506-29.532,1.844-46.238,5.329
			c-0.627,0.128-0.92,0.878-0.484,1.347c0.598,0.644,1.475,0.954,2.349,0.865c14.617-1.525,25.192-1.249,39.226-0.48
			C527.541,95.602,530.372,94.508,531.984,92.185z"/>
		<circle fill="#76B2CC" cx="530.022" cy="59.775" r="4.941"/>
		<path fill="#76B2CC" d="M519.746,48.798c0.156,2.787-1.975,5.172-4.762,5.33c-2.786,0.157-5.171-1.975-5.327-4.762
			c-0.159-2.786,1.974-5.171,4.761-5.328C517.204,43.881,519.588,46.013,519.746,48.798z"/>
		<circle fill="#76B2CC" cx="487.917" cy="46.547" r="4.888"/>
		<circle fill="#76B2CC" cx="517.648" cy="59.036" r="3.582"/>
		<path fill="#76B2CC" d="M529.818,50.891c0.111,1.975-1.399,3.666-3.376,3.778c-1.972,0.11-3.665-1.399-3.777-3.375
			c-0.11-1.976,1.399-3.667,3.376-3.778C528.016,47.405,529.706,48.914,529.818,50.891z"/>
		<circle fill="#76B2CC" cx="473.149" cy="67.466" r="3.429"/>
		<circle fill="#76B2CC" cx="482.901" cy="52.928" r="0.93"/>
		<circle fill="#76B2CC" cx="522.659" cy="62.876" r="1.587"/>
		<circle fill="#76B2CC" cx="508.899" cy="38.981" r="1.132"/>
		<path fill="#76B2CC" d="M494.954,40.752c0.054,0.945-0.669,1.751-1.613,1.803c-0.94,0.054-1.749-0.667-1.803-1.611
			c-0.053-0.94,0.668-1.749,1.608-1.801C494.091,39.089,494.9,39.809,494.954,40.752z"/>
		<circle fill="#76B2CC" cx="518.546" cy="42.369" r="1.288"/>
		<circle fill="#76B2CC" cx="498.264" cy="39.125" r="1.287"/>
		<path fill="#76B2CC" d="M479.438,55.289c0.083,1.422-1.006,2.642-2.432,2.724c-1.421,0.079-2.639-1.01-2.72-2.434
			c-0.08-1.423,1.009-2.64,2.43-2.72C478.142,52.779,479.359,53.869,479.438,55.289z"/>
		<circle fill="#76B2CC" cx="482.075" cy="68.132" r="2.726"/>
		<circle fill="#76B2CC" cx="470.96" cy="72.932" r="1.279"/>
		<path fill="#76B2CC" d="M482.76,61.593c0.09,1.597-1.13,2.965-2.728,3.054c-1.595,0.091-2.964-1.13-3.053-2.727
			c-0.09-1.596,1.131-2.961,2.728-3.054C481.303,58.779,482.67,59.998,482.76,61.593z"/>
		<circle fill="#76B2CC" cx="485.192" cy="57.126" r="3.281"/>
		<circle fill="#76B2CC" cx="506.162" cy="46.393" r="2.231"/>
		<circle fill="#76B2CC" cx="493.866" cy="54.439" r="3.097"/>
		<circle fill="#76B2CC" cx="521.037" cy="53.711" r="1.445"/>
		<circle fill="#76B2CC" cx="490.958" cy="64.035" r="4.556"/>
		<circle fill="#76B2CC" cx="502.756" cy="53.331" r="4.233"/>
		<circle fill="#76B2CC" cx="522.347" cy="45.645" r="2.232"/>
		<circle fill="#76B2CC" cx="503.506" cy="40.475" r="3.078"/>
		<circle fill="#76B2CC" cx="497.934" cy="58.305" r="1.178"/>
		<circle fill="#76B2CC" cx="503.668" cy="61.333" r="2.122"/>
		<circle fill="#76B2CC" cx="510.513" cy="62.365" r="2.59"/>
		<circle fill="#76B2CC" cx="498.918" cy="64.955" r="2.232"/>
		<circle fill="#76B2CC" cx="473.192" cy="60.764" r="2.232"/>
		<circle fill="#76B2CC" cx="479.87" cy="50.109" r="2.231"/>
		<circle fill="#76B2CC" cx="512.885" cy="40.848" r="2.232"/>
		<circle fill="#76B2CC" cx="510.46" cy="56.309" r="2.232"/>
		<circle fill="#76B2CC" cx="497.507" cy="46.053" r="3.361"/>
	</g>
	<g>
		<path fill="#C32F29" d="M355.666,182.434v-3.544v-7.09v-3.542v-7.925c0-1.173,0.955-2.127,2.129-2.127h17.537
			c1.176,0,2.128,0.954,2.128,2.127v7.925v3.542h-3.546h-14.567l7.09,7.09h7.478h3.546h7.09h3.544h7.925
			c1.173,0,2.127,0.954,2.127,2.127v17.535c0,1.173-0.954,2.127-2.127,2.127h-7.925v7.09h7.925c5.083,0,9.218-4.135,9.218-9.217
			v-17.535c0-5.082-4.135-9.217-9.218-9.217h-7.925h-3.544v-3.542v-7.925c0-5.08-4.135-9.215-9.218-9.215h-17.537
			c-5.083,0-9.218,4.135-9.218,9.215v7.925v3.542v7.09v3.544v14.7h7.089V182.434z"/>
		<path fill="#56B79E" d="M337.108,207.769h7.925h3.544v3.543l-0.001,7.923c0,5.081,4.136,9.216,9.219,9.216h17.537
			c5.083,0,9.218-4.135,9.218-9.216v-7.923v-3.543v-7.09v-3.545v-14.7h-7.09v14.7v3.545v7.09v3.543l-0.001,7.923
			c0,1.173-0.952,2.126-2.127,2.126h-17.537c-1.175,0-2.129-0.953-2.129-2.126v-7.923v-3.543h3.547h14.638l-7.091-7.09h-7.547
			h-3.547h-7.089h-3.544h-7.925c-1.173,0-2.127-0.954-2.127-2.127v-17.535c0-1.173,0.954-2.127,2.127-2.127h7.925v-7.09h-7.925
			c-5.082,0-9.218,4.135-9.218,9.217v17.535C327.891,203.634,332.026,207.769,337.108,207.769z"/>
	</g>
	<g>
		<g>
			<g>
				<polygon fill="#748866" points="267.613,302.82 237.411,302.82 237.41,302.958 237.41,316.909 253.524,316.909 				"/>
			</g>
			<g opacity="0.7">
				<polygon fill="#748866" points="240.654,313.665 240.654,306.064 259.782,306.064 252.181,313.665 				"/>
			</g>
			<g>
				<polygon fill="#748866" points="233.883,299.338 233.883,269.139 219.792,283.231 219.793,299.338 233.792,299.338 				"/>
			</g>
			<g opacity="0.7">
				<polygon fill="#748866" points="223.038,296.094 223.037,284.574 230.638,276.972 230.638,296.094 				"/>
			</g>
		</g>
		<polygon fill="#93C34B" points="200.237,302.778 186.148,316.866 219.879,316.866 219.879,350.548 233.969,336.455 
			233.969,302.778 		"/>
		<polygon opacity="0.7" fill="#93C34B" points="223.123,313.622 193.981,313.622 201.581,306.021 230.725,306.021 230.725,335.112 
			223.123,342.715 		"/>
		<path fill="#93C34B" d="M256.111,288.262c-0.001,4.218-3.422,7.639-7.644,7.639c-4.221,0-7.641-3.421-7.641-7.639
			c0-4.221,3.42-7.642,7.641-7.642C252.689,280.62,256.11,284.037,256.111,288.262z"/>
		<path opacity="0.7" fill="#93C34B" d="M248.468,292.656c-2.424,0-4.396-1.972-4.396-4.395c0-2.426,1.972-4.397,4.396-4.397
			c2.425,0,4.398,1.973,4.399,4.398C252.866,290.685,250.893,292.656,248.468,292.656z"/>
		<circle fill="#748866" cx="205.474" cy="331.249" r="7.641"/>
		<path opacity="0.7" fill="#748866" d="M205.474,335.645c-2.425,0-4.397-1.972-4.397-4.396s1.972-4.396,4.396-4.396
			c2.425,0,4.398,1.973,4.398,4.396S207.898,335.645,205.474,335.645z"/>
	</g>
	<g>
		<path fill="#F26522" d="M259.785,58.835c-0.456-1.167-0.737-1.944-1.313-3.051c-24.483-7.462-50.596,2.438-64.666,25.593
			c0.589,1.875,1.335,3.689,2.222,5.424C210.294,64.306,235.153,53.386,259.785,58.835z"/>
		<path fill="#F26522" d="M257.511,53.947c-0.833-1.514-0.865-1.672-1.911-3.045c-22.527-8.058-47.894-1.557-63.339,18.155
			c-0.123,2.226-0.027,4.419,0.262,6.564C208.522,55.173,233.635,46.311,257.511,53.947z"/>
		<path fill="#F26522" d="M198.529,90.939c1.829,2.611,4.01,4.973,6.493,7.004c7.371-21.421,29.238-35.151,52.411-31.548
			c1.468,0.228,2.908,0.525,4.322,0.878c-0.305-2.889-0.416-3.542-1.273-6.311C235.815,55.927,210.833,66.924,198.529,90.939z"/>
		<path fill="#FFDE17" d="M254.002,48.811c-5.244-6.384-12.759-10.942-21.567-12.312c-17.569-2.731-34.102,8.169-38.864,24.833
			C210.251,46.003,233.06,41.099,254.002,48.811z"/>
		<g>
			<path fill="#8DC63F" d="M227.123,106.912c-1.852,0-3.726-0.146-5.57-0.432c-6.326-0.983-12.282-3.641-17.226-7.687l-0.592-0.484
				l0.249-0.723c6.764-19.656,25.275-32.862,46.063-32.862c2.512,0,5.053,0.197,7.555,0.586c1.441,0.223,2.928,0.525,4.419,0.897
				l0.746,0.186l0.081,0.765c0.326,3.095,0.248,6.229-0.231,9.313C259.875,94.109,244.946,106.912,227.123,106.912
				C227.123,106.912,227.125,106.912,227.123,106.912z"/>
			<path fill="#FFFFFF" d="M250.047,65.822c2.436,0,4.904,0.188,7.386,0.573c1.468,0.228,2.908,0.525,4.322,0.878
				c0.31,2.942,0.251,5.969-0.224,9.029c-2.676,17.212-17.515,29.512-34.408,29.512c-1.781,0-3.586-0.137-5.401-0.419
				c-6.364-0.989-12.052-3.648-16.699-7.452C211.604,78.817,229.742,65.822,250.047,65.822 M250.047,63.626
				c-21.257,0-40.186,13.504-47.102,33.603l-0.498,1.446l1.184,0.968c5.095,4.169,11.233,6.909,17.752,7.922
				c1.9,0.295,3.831,0.445,5.739,0.445c8.747,0,17.255-3.133,23.957-8.823c6.772-5.75,11.255-13.757,12.621-22.547
				c0.494-3.178,0.573-6.407,0.238-9.597l-0.161-1.528l-1.492-0.373c-1.523-0.38-3.043-0.689-4.517-0.917
				C255.214,63.828,252.615,63.626,250.047,63.626L250.047,63.626z"/>
		</g>
		<g>
			<linearGradient id="SVGID_22_" gradientUnits="userSpaceOnUse" x1="211.6899" y1="85.8174" x2="256.4609" y2="85.8174">
				<stop  offset="0" style="stop-color:#D7DF23"/>
				<stop  offset="1" style="stop-color:#007434"/>
			</linearGradient>
			<path fill="url(#SVGID_22_)" d="M226.478,100.315c-1.302-0.028-2.619-0.145-3.912-0.346c-3.519-0.546-6.876-1.715-9.98-3.474
				l-0.895-0.508l0.448-0.926c3.107-6.42,7.88-12.002,13.803-16.14c7.127-4.978,15.457-7.609,24.086-7.609
				c0.316,0,0.631,0.003,0.948,0.011c1.476,0.032,2.978,0.144,4.463,0.333l1.022,0.13l-0.066,1.029
				c-0.056,0.877-0.153,1.766-0.289,2.642c-2.205,14.176-14.665,24.865-28.983,24.865
				C226.908,100.323,226.694,100.32,226.478,100.315z"/>
			<path fill="#FFFFFF" d="M250.027,72.411c0.308,0,0.615,0.003,0.923,0.01c1.443,0.031,2.902,0.141,4.349,0.325
				c-0.054,0.85-0.147,1.7-0.278,2.543c-2.138,13.747-14.074,23.936-27.898,23.936c-0.208,0-0.413-0.002-0.621-0.007
				c-0.001-0.001,0,0-0.001-0.001c-1.251-0.026-2.52-0.138-3.767-0.332c-3.391-0.526-6.647-1.667-9.607-3.344
				c3.037-6.276,7.62-11.65,13.443-15.719C233.521,74.967,241.614,72.411,250.027,72.411 M250.029,70.214h-0.002
				c-8.856,0-17.403,2.7-24.715,7.807c-6.077,4.246-10.974,9.973-14.163,16.563l-0.896,1.853l1.791,1.015
				c3.22,1.825,6.703,3.037,10.354,3.604c1.344,0.208,2.709,0.329,4.058,0.357c0.223,0.006,0.445,0.008,0.668,0.008
				c14.854,0,27.781-11.089,30.068-25.794c0.141-0.909,0.242-1.831,0.3-2.741l0.131-2.057l-2.045-0.261
				c-1.523-0.194-3.064-0.309-4.579-0.342C250.675,70.218,250.353,70.214,250.029,70.214L250.029,70.214z"/>
		</g>
	</g>
	<g>
		<path fill="#5C9942" d="M369.758,55.105c-5.469-0.677-10.969,1.812-14.077,6.356c-3.308,4.836-3.404,11.38-0.25,16.315
			c5.015,7.946,16.447,9.02,23.062,2.426l-1.243-1.267c-2.305,2.306-5.354,3.718-8.62,3.898c-5.3,0.293-10.366-2.787-12.568-7.604
			c-2.42-5.295-0.944-11.719,3.52-15.443c4.333-3.612,10.713-4,15.445-0.923c4.677,3.039,6.967,8.923,5.505,14.321l1.715,0.458
			C384.563,65.084,378.532,56.189,369.758,55.105z"/>
		<path fill="#F1625F" d="M381.104,82.862l1.244,1.267c-6.94,6.875-18.07,7.976-26.105,2.312
			c-8.658-6.104-11.229-18.329-5.586-27.341l1.507,0.937c-5.227,8.347-2.719,19.704,5.43,25.178
			C364.914,90.133,374.888,89.063,381.104,82.862L381.104,82.862z"/>
		<path fill="#F1625F" d="M373.036,74.647l1.71,1.741c-4.789,5.048-13.594,3.039-15.795-3.529
			c-2.445-7.297,4.709-14.515,12.05-12.011l-0.79,2.31c-5.309-1.812-10.59,3.253-9.035,8.628
			C362.685,76.998,369.314,78.382,373.036,74.647L373.036,74.647z"/>
		<path fill="#5C9942" d="M391.564,93.515l1.711,1.741c-7.63,7.611-18.55,11.422-29.262,10.255
			c-10.826-1.18-20.729-7.4-26.512-16.611c-6.624-10.548-7.261-24.136-1.65-35.256c4.962-9.834,14.374-16.97,25.19-19.084
			c6.147-1.201,12.592-0.759,18.519,1.27l-0.79,2.308c-11.094-3.793-23.698-1.398-32.604,6.234
			c-9.132,7.887-13.467,20.291-11.039,32.144c2.183,10.652,9.597,19.777,19.593,24.057c11.231,4.809,24.699,3.057,34.197-4.687
			C389.836,95.135,390.726,94.353,391.564,93.515L391.564,93.515z"/>
		<path fill="#F1625F" d="M387.461,89.336l1.711,1.741c-8.652,8.452-21.653,11.162-32.879,6.453
			c-8.258-3.465-14.646-10.587-17.189-19.172c-3.922-13.25,1.999-27.862,13.952-34.672l1.208,2.121
			c-8.039,4.573-13.367,13.129-13.911,22.381c-0.538,9.162,3.66,18.198,10.979,23.7c5.451,4.097,12.343,6.049,19.133,5.425
			C376.905,96.72,382.852,93.838,387.461,89.336L387.461,89.336z"/>
		<path fill="#5C9942" d="M365.229,67.426c0.021-0.019,0.044-0.03,0.063-0.049c0.017-0.019,0.029-0.041,0.046-0.061
			C365.323,67.332,365.295,67.36,365.229,67.426z"/>
		<rect x="365.34" y="67.314" fill="#5C9942" width="0" height="0.003"/>
		<path fill="#5C9942" d="M365.342,67.313C365.34,67.314,365.342,67.313,365.342,67.313
			C365.344,67.311,365.351,67.304,365.342,67.313L365.342,67.313z"/>
		<path fill="#205A2D" d="M373.333,92.331c-11.215,2.688-23.009-3.568-27.074-14.333c-4.081-10.803,0.686-23.317,10.878-28.684
			c9.082-4.781,20.646-2.874,27.66,4.626c7.586,8.114,8.208,20.682,1.824,29.496l1.285,1.285c4.092-5.507,5.8-12.617,4.549-19.419
			c-1.785-9.713-9.344-17.601-18.963-19.799c-11.381-2.602-23.361,3.308-28.227,13.895c-4.932,10.728-1.438,23.834,8.151,30.692
			c9.887,7.07,23.548,5.776,32.163-2.668l-1.243-1.267C381.279,89.161,377.516,91.329,373.333,92.331z"/>
		<path fill="#5C9942" d="M368.907,70.462c-0.118,0.116-0.234,0.231-0.353,0.347c0.035-0.034,0.062-0.074,0.104-0.104
			c-0.436,0.364-1.081,0.322-1.5-0.043c-0.057-0.063-0.11-0.122-0.146-0.16c-0.335-0.432-0.296-1.068,0.069-1.47
			c0.064-0.061,0.129-0.12,0.162-0.152l0.001-0.001c0.585-0.36,1.395-0.231,1.704,0.431l1.764-1.764
			c-1.314-1.632-3.851-1.662-5.42-0.169c-1.352,1.51-1.162,3.636,0.186,5.056c1.551,1.402,3.72,1.164,5.148-0.239l-0.606-0.618
			L368.907,70.462z"/>
	</g>
	<g>
		<linearGradient id="SVGID_23_" gradientUnits="userSpaceOnUse" x1="188.3516" y1="152" x2="286.8734" y2="182.4162">
			<stop  offset="0" style="stop-color:#EE1E4B"/>
			<stop  offset="0.3636" style="stop-color:#3960AC"/>
			<stop  offset="0.4644" style="stop-color:#3B658F"/>
			<stop  offset="0.5708" style="stop-color:#3B6A75"/>
			<stop  offset="0.6738" style="stop-color:#3C6D60"/>
			<stop  offset="0.7707" style="stop-color:#3C6F4D"/>
			<stop  offset="0.8601" style="stop-color:#3C7140"/>
			<stop  offset="0.9393" style="stop-color:#3C7239"/>
			<stop  offset="1" style="stop-color:#3B7237"/>
		</linearGradient>
		<path fill="url(#SVGID_23_)" d="M229.104,179.557l1.583,2.742c0.843,1.464,2.415,2.369,4.102,2.369h3.172h28.935
			c1.214,0,1.974-1.315,1.367-2.368l-16.063-27.818c-0.843-1.462-2.414-2.366-4.102-2.366h-32.105c-1.216,0-1.975,1.314-1.368,2.366
			L229.104,179.557z"/>
		<linearGradient id="SVGID_24_" gradientUnits="userSpaceOnUse" x1="217.9937" y1="168.3906" x2="264.8936" y2="168.3906">
			<stop  offset="0" style="stop-color:#000000;stop-opacity:0"/>
			<stop  offset="1" style="stop-color:#000000"/>
		</linearGradient>
		<path fill="url(#SVGID_24_)" stroke="#FFFFFF" stroke-width="1.3672" stroke-miterlimit="10" d="M234.79,181.934
			c-0.712,0-1.376-0.382-1.733-1l-15.063-26.086h30.104c0.712,0,1.377,0.384,1.734,1l15.062,26.086H234.79z"/>
		<linearGradient id="SVGID_25_" gradientUnits="userSpaceOnUse" x1="177.2227" y1="181.3975" x2="277.8146" y2="212.4528">
			<stop  offset="0" style="stop-color:#EE1E4B"/>
			<stop  offset="0.3636" style="stop-color:#3960AC"/>
			<stop  offset="0.4644" style="stop-color:#3B658F"/>
			<stop  offset="0.5708" style="stop-color:#3B6A75"/>
			<stop  offset="0.6738" style="stop-color:#3C6D60"/>
			<stop  offset="0.7707" style="stop-color:#3C6F4D"/>
			<stop  offset="0.8601" style="stop-color:#3C7140"/>
			<stop  offset="0.9393" style="stop-color:#3C7239"/>
			<stop  offset="1" style="stop-color:#3B7237"/>
		</linearGradient>
		<path fill="url(#SVGID_25_)" d="M220.245,194.896l1.584-2.746c0.844-1.461,0.844-3.275-0.001-4.735l-1.586-2.748l-14.488-25.091
			c-0.608-1.052-2.126-1.052-2.735,0l-16.076,27.839c-0.842,1.46-0.842,3.274,0,4.734l16.076,27.842
			c0.608,1.052,2.127,1.053,2.735,0L220.245,194.896z"/>
		<linearGradient id="SVGID_26_" gradientUnits="userSpaceOnUse" x1="189.0459" y1="189.7832" x2="219.7275" y2="189.7832">
			<stop  offset="0" style="stop-color:#000000;stop-opacity:0"/>
			<stop  offset="1" style="stop-color:#000000"/>
		</linearGradient>
		<path fill="url(#SVGID_26_)" stroke="#FFFFFF" stroke-width="1.3672" stroke-miterlimit="10" d="M189.313,190.784
			c-0.356-0.619-0.356-1.384,0-2.001l15.074-26.107l15.072,26.107c0.357,0.617,0.357,1.386,0,2.002l-15.072,26.107L189.313,190.784z
			"/>
		<linearGradient id="SVGID_27_" gradientUnits="userSpaceOnUse" x1="175.3931" y1="190.7832" x2="276.1561" y2="221.8914">
			<stop  offset="0" style="stop-color:#EE1E4B"/>
			<stop  offset="0.3636" style="stop-color:#3960AC"/>
			<stop  offset="0.4644" style="stop-color:#3B658F"/>
			<stop  offset="0.5708" style="stop-color:#3B6A75"/>
			<stop  offset="0.6738" style="stop-color:#3C6D60"/>
			<stop  offset="0.7707" style="stop-color:#3C6F4D"/>
			<stop  offset="0.8601" style="stop-color:#3C7140"/>
			<stop  offset="0.9393" style="stop-color:#3C7239"/>
			<stop  offset="1" style="stop-color:#3B7237"/>
		</linearGradient>
		<path fill="url(#SVGID_27_)" d="M237.961,194.896h-3.172c-1.687,0-3.259,0.906-4.101,2.368l-1.584,2.746l-14.48,25.074
			c-0.606,1.054,0.152,2.369,1.368,2.369h32.105c1.688,0,3.258-0.908,4.102-2.369l16.064-27.82c0.608-1.054-0.152-2.368-1.368-2.368
			H237.961z"/>
		<linearGradient id="SVGID_28_" gradientUnits="userSpaceOnUse" x1="217.9937" y1="211.1738" x2="264.8936" y2="211.1738">
			<stop  offset="0" style="stop-color:#000000;stop-opacity:0"/>
			<stop  offset="1" style="stop-color:#000000"/>
		</linearGradient>
		<path fill="url(#SVGID_28_)" stroke="#FFFFFF" stroke-width="1.3672" stroke-miterlimit="10" d="M217.994,224.718l15.063-26.087
			c0.356-0.617,1.021-1,1.733-1h30.104l-15.063,26.088c-0.356,0.616-1.021,0.999-1.733,0.999H217.994z"/>
	</g>
	<g>
		<g>
			<linearGradient id="SVGID_29_" gradientUnits="userSpaceOnUse" x1="59.4111" y1="169.168" x2="87.6385" y2="209.4808">
				<stop  offset="0" style="stop-color:#102268"/>
				<stop  offset="1" style="stop-color:#27AAE1"/>
			</linearGradient>
			<path fill="url(#SVGID_29_)" d="M46.529,193.169c0.893,5.807,3.993,10.92,8.731,14.396c9.779,7.175,23.573,5.058,30.75-4.72
				l0.229-0.313c0.51-0.695,0.359-1.674-0.337-2.183l-3.814-2.799c-0.696-0.511-1.674-0.36-2.185,0.335l-0.228,0.311
				c-4.613,6.287-13.481,7.648-19.768,3.034c-3.045-2.233-5.039-5.521-5.612-9.253c-0.573-3.734,0.342-7.467,2.577-10.513
				c2.234-3.044,5.521-5.038,9.255-5.611c3.734-0.573,7.468,0.342,10.513,2.576l26.017,19.24c0.693,0.511,1.67,0.362,2.181-0.333
				l2.8-3.814c0.511-0.695,0.362-1.675-0.332-2.187l-26.018-19.238c-4.738-3.477-10.545-4.899-16.353-4.007
				c-5.809,0.891-10.922,3.99-14.398,8.727C47.061,181.555,45.637,187.361,46.529,193.169z"/>
		</g>
		<g>
			<linearGradient id="SVGID_30_" gradientUnits="userSpaceOnUse" x1="94.0674" y1="204.4229" x2="118.6685" y2="167.9503">
				<stop  offset="0" style="stop-color:#F7901E"/>
				<stop  offset="1" style="stop-color:#ED1C24"/>
			</linearGradient>
			<path fill="url(#SVGID_30_)" d="M133.375,186.399c-0.892-5.808-3.992-10.92-8.73-14.396c-9.778-7.174-23.573-5.056-30.75,4.721
				l-0.229,0.311c-0.51,0.696-0.359,1.674,0.337,2.185l3.814,2.798c0.696,0.51,1.674,0.36,2.185-0.335l0.228-0.311
				c4.612-6.286,13.482-7.647,19.768-3.034c3.045,2.233,5.04,5.521,5.612,9.254c0.573,3.732-0.342,7.467-2.577,10.511
				c-2.234,3.044-5.521,5.038-9.254,5.61c-3.735,0.575-7.468-0.34-10.514-2.574l-26.017-19.239c-0.692-0.513-1.67-0.364-2.18,0.331
				l-2.8,3.816c-0.511,0.695-0.363,1.674,0.332,2.187l26.019,19.239c4.737,3.476,10.544,4.898,16.352,4.006
				c5.809-0.891,10.921-3.989,14.398-8.728C132.845,198.014,134.268,192.207,133.375,186.399z"/>
		</g>
	</g>
</g>
</svg>
